G04 EAGLE Gerber RS-274X export*
G75*
%MOMM*%
%FSLAX34Y34*%
%LPD*%
%INSilkscreen Bottom*%
%IPPOS*%
%AMOC8*
5,1,8,0,0,1.08239X$1,22.5*%
G01*
%ADD10C,0.152400*%
%ADD11C,0.127000*%
%ADD12C,0.076200*%
%ADD13C,0.200000*%
%ADD14C,0.101600*%


D10*
X39878Y112850D02*
X23622Y112850D01*
X23622Y111044D02*
X23622Y114656D01*
X39878Y114656D02*
X39878Y111044D01*
X39878Y120937D02*
X26331Y120937D01*
X26230Y120939D01*
X26129Y120945D01*
X26028Y120954D01*
X25927Y120967D01*
X25827Y120984D01*
X25728Y121005D01*
X25630Y121029D01*
X25533Y121057D01*
X25436Y121089D01*
X25341Y121124D01*
X25248Y121163D01*
X25156Y121205D01*
X25065Y121251D01*
X24977Y121300D01*
X24890Y121352D01*
X24805Y121408D01*
X24722Y121466D01*
X24642Y121528D01*
X24564Y121593D01*
X24488Y121660D01*
X24415Y121730D01*
X24345Y121803D01*
X24278Y121879D01*
X24213Y121957D01*
X24151Y122037D01*
X24093Y122120D01*
X24037Y122205D01*
X23985Y122292D01*
X23936Y122380D01*
X23890Y122471D01*
X23848Y122563D01*
X23809Y122656D01*
X23774Y122751D01*
X23742Y122848D01*
X23714Y122945D01*
X23690Y123043D01*
X23669Y123142D01*
X23652Y123242D01*
X23639Y123343D01*
X23630Y123444D01*
X23624Y123545D01*
X23622Y123646D01*
X23622Y140010D02*
X23622Y144525D01*
X23622Y140010D02*
X23624Y139909D01*
X23630Y139808D01*
X23639Y139707D01*
X23652Y139606D01*
X23669Y139506D01*
X23690Y139407D01*
X23714Y139309D01*
X23742Y139212D01*
X23774Y139115D01*
X23809Y139020D01*
X23848Y138927D01*
X23890Y138835D01*
X23936Y138744D01*
X23985Y138656D01*
X24037Y138569D01*
X24093Y138484D01*
X24151Y138401D01*
X24213Y138321D01*
X24278Y138243D01*
X24345Y138167D01*
X24415Y138094D01*
X24488Y138024D01*
X24564Y137957D01*
X24642Y137892D01*
X24722Y137830D01*
X24805Y137772D01*
X24890Y137716D01*
X24977Y137664D01*
X25065Y137615D01*
X25156Y137569D01*
X25248Y137527D01*
X25341Y137488D01*
X25436Y137453D01*
X25533Y137421D01*
X25630Y137393D01*
X25728Y137369D01*
X25827Y137348D01*
X25927Y137331D01*
X26028Y137318D01*
X26129Y137309D01*
X26230Y137303D01*
X26331Y137301D01*
X26331Y137300D02*
X31750Y137300D01*
X31750Y137301D02*
X31851Y137303D01*
X31952Y137309D01*
X32053Y137318D01*
X32154Y137331D01*
X32254Y137348D01*
X32353Y137369D01*
X32451Y137393D01*
X32548Y137421D01*
X32645Y137453D01*
X32740Y137488D01*
X32833Y137527D01*
X32925Y137569D01*
X33016Y137615D01*
X33104Y137664D01*
X33191Y137716D01*
X33276Y137772D01*
X33359Y137830D01*
X33439Y137892D01*
X33517Y137957D01*
X33593Y138024D01*
X33666Y138094D01*
X33736Y138167D01*
X33803Y138243D01*
X33868Y138321D01*
X33930Y138401D01*
X33988Y138484D01*
X34044Y138569D01*
X34096Y138655D01*
X34145Y138744D01*
X34191Y138835D01*
X34233Y138927D01*
X34272Y139020D01*
X34307Y139115D01*
X34339Y139212D01*
X34367Y139309D01*
X34391Y139407D01*
X34412Y139506D01*
X34429Y139606D01*
X34442Y139707D01*
X34451Y139808D01*
X34457Y139909D01*
X34459Y140010D01*
X34459Y144525D01*
X20913Y144525D01*
X20809Y144523D01*
X20706Y144517D01*
X20602Y144507D01*
X20499Y144493D01*
X20397Y144475D01*
X20296Y144454D01*
X20195Y144428D01*
X20096Y144399D01*
X19997Y144366D01*
X19900Y144329D01*
X19805Y144288D01*
X19711Y144244D01*
X19619Y144196D01*
X19529Y144145D01*
X19440Y144090D01*
X19354Y144032D01*
X19271Y143970D01*
X19189Y143906D01*
X19111Y143838D01*
X19035Y143768D01*
X18961Y143695D01*
X18891Y143618D01*
X18823Y143540D01*
X18759Y143458D01*
X18697Y143375D01*
X18639Y143289D01*
X18584Y143200D01*
X18533Y143110D01*
X18485Y143018D01*
X18441Y142924D01*
X18400Y142829D01*
X18363Y142732D01*
X18330Y142633D01*
X18301Y142534D01*
X18275Y142433D01*
X18254Y142332D01*
X18236Y142230D01*
X18222Y142127D01*
X18212Y142023D01*
X18206Y141920D01*
X18204Y141816D01*
X18203Y141816D02*
X18203Y138203D01*
X29944Y154529D02*
X29944Y158593D01*
X29944Y154529D02*
X29942Y154417D01*
X29936Y154306D01*
X29926Y154195D01*
X29913Y154084D01*
X29895Y153974D01*
X29873Y153865D01*
X29848Y153756D01*
X29819Y153648D01*
X29786Y153542D01*
X29749Y153436D01*
X29709Y153332D01*
X29665Y153230D01*
X29617Y153129D01*
X29566Y153030D01*
X29511Y152932D01*
X29453Y152837D01*
X29392Y152744D01*
X29327Y152653D01*
X29259Y152564D01*
X29188Y152478D01*
X29115Y152395D01*
X29038Y152314D01*
X28958Y152235D01*
X28876Y152160D01*
X28791Y152088D01*
X28704Y152018D01*
X28614Y151952D01*
X28522Y151889D01*
X28427Y151829D01*
X28331Y151773D01*
X28233Y151720D01*
X28133Y151671D01*
X28031Y151625D01*
X27928Y151583D01*
X27823Y151544D01*
X27717Y151509D01*
X27610Y151478D01*
X27502Y151451D01*
X27393Y151427D01*
X27283Y151408D01*
X27173Y151392D01*
X27062Y151380D01*
X26950Y151372D01*
X26839Y151368D01*
X26727Y151368D01*
X26616Y151372D01*
X26504Y151380D01*
X26393Y151392D01*
X26283Y151408D01*
X26173Y151427D01*
X26064Y151451D01*
X25956Y151478D01*
X25849Y151509D01*
X25743Y151544D01*
X25638Y151583D01*
X25535Y151625D01*
X25433Y151671D01*
X25333Y151720D01*
X25235Y151773D01*
X25139Y151829D01*
X25044Y151889D01*
X24952Y151952D01*
X24862Y152018D01*
X24775Y152088D01*
X24690Y152160D01*
X24608Y152235D01*
X24528Y152314D01*
X24451Y152395D01*
X24378Y152478D01*
X24307Y152564D01*
X24239Y152653D01*
X24174Y152744D01*
X24113Y152837D01*
X24055Y152932D01*
X24000Y153030D01*
X23949Y153129D01*
X23901Y153230D01*
X23857Y153332D01*
X23817Y153436D01*
X23780Y153542D01*
X23747Y153648D01*
X23718Y153756D01*
X23693Y153865D01*
X23671Y153974D01*
X23653Y154084D01*
X23640Y154195D01*
X23630Y154306D01*
X23624Y154417D01*
X23622Y154529D01*
X23622Y158593D01*
X31750Y158593D01*
X31851Y158591D01*
X31952Y158585D01*
X32053Y158576D01*
X32154Y158563D01*
X32254Y158546D01*
X32353Y158525D01*
X32451Y158501D01*
X32548Y158473D01*
X32645Y158441D01*
X32740Y158406D01*
X32833Y158367D01*
X32925Y158325D01*
X33016Y158279D01*
X33105Y158230D01*
X33191Y158178D01*
X33276Y158122D01*
X33359Y158064D01*
X33439Y158002D01*
X33517Y157937D01*
X33593Y157870D01*
X33666Y157800D01*
X33736Y157727D01*
X33803Y157651D01*
X33868Y157573D01*
X33930Y157493D01*
X33988Y157410D01*
X34044Y157325D01*
X34096Y157239D01*
X34145Y157150D01*
X34191Y157059D01*
X34233Y156967D01*
X34272Y156874D01*
X34307Y156779D01*
X34339Y156682D01*
X34367Y156585D01*
X34391Y156487D01*
X34412Y156388D01*
X34429Y156288D01*
X34442Y156187D01*
X34451Y156086D01*
X34457Y155985D01*
X34459Y155884D01*
X34459Y152271D01*
X34459Y166116D02*
X23622Y166116D01*
X34459Y166116D02*
X34459Y171534D01*
X32653Y171534D01*
X29944Y179539D02*
X29944Y183603D01*
X29944Y179539D02*
X29942Y179427D01*
X29936Y179316D01*
X29926Y179205D01*
X29913Y179094D01*
X29895Y178984D01*
X29873Y178875D01*
X29848Y178766D01*
X29819Y178658D01*
X29786Y178552D01*
X29749Y178446D01*
X29709Y178342D01*
X29665Y178240D01*
X29617Y178139D01*
X29566Y178040D01*
X29511Y177942D01*
X29453Y177847D01*
X29392Y177754D01*
X29327Y177663D01*
X29259Y177574D01*
X29188Y177488D01*
X29115Y177405D01*
X29038Y177324D01*
X28958Y177245D01*
X28876Y177170D01*
X28791Y177098D01*
X28704Y177028D01*
X28614Y176962D01*
X28522Y176899D01*
X28427Y176839D01*
X28331Y176783D01*
X28233Y176730D01*
X28133Y176681D01*
X28031Y176635D01*
X27928Y176593D01*
X27823Y176554D01*
X27717Y176519D01*
X27610Y176488D01*
X27502Y176461D01*
X27393Y176437D01*
X27283Y176418D01*
X27173Y176402D01*
X27062Y176390D01*
X26950Y176382D01*
X26839Y176378D01*
X26727Y176378D01*
X26616Y176382D01*
X26504Y176390D01*
X26393Y176402D01*
X26283Y176418D01*
X26173Y176437D01*
X26064Y176461D01*
X25956Y176488D01*
X25849Y176519D01*
X25743Y176554D01*
X25638Y176593D01*
X25535Y176635D01*
X25433Y176681D01*
X25333Y176730D01*
X25235Y176783D01*
X25139Y176839D01*
X25044Y176899D01*
X24952Y176962D01*
X24862Y177028D01*
X24775Y177098D01*
X24690Y177170D01*
X24608Y177245D01*
X24528Y177324D01*
X24451Y177405D01*
X24378Y177488D01*
X24307Y177574D01*
X24239Y177663D01*
X24174Y177754D01*
X24113Y177847D01*
X24055Y177942D01*
X24000Y178040D01*
X23949Y178139D01*
X23901Y178240D01*
X23857Y178342D01*
X23817Y178446D01*
X23780Y178552D01*
X23747Y178658D01*
X23718Y178766D01*
X23693Y178875D01*
X23671Y178984D01*
X23653Y179094D01*
X23640Y179205D01*
X23630Y179316D01*
X23624Y179427D01*
X23622Y179539D01*
X23622Y183603D01*
X31750Y183603D01*
X31851Y183601D01*
X31952Y183595D01*
X32053Y183586D01*
X32154Y183573D01*
X32254Y183556D01*
X32353Y183535D01*
X32451Y183511D01*
X32548Y183483D01*
X32645Y183451D01*
X32740Y183416D01*
X32833Y183377D01*
X32925Y183335D01*
X33016Y183289D01*
X33105Y183240D01*
X33191Y183188D01*
X33276Y183132D01*
X33359Y183074D01*
X33439Y183012D01*
X33517Y182947D01*
X33593Y182880D01*
X33666Y182810D01*
X33736Y182737D01*
X33803Y182661D01*
X33868Y182583D01*
X33930Y182503D01*
X33988Y182420D01*
X34044Y182335D01*
X34096Y182249D01*
X34145Y182160D01*
X34191Y182069D01*
X34233Y181977D01*
X34272Y181884D01*
X34307Y181789D01*
X34339Y181692D01*
X34367Y181595D01*
X34391Y181497D01*
X34412Y181398D01*
X34429Y181298D01*
X34442Y181197D01*
X34451Y181096D01*
X34457Y180995D01*
X34459Y180894D01*
X34459Y177281D01*
X23622Y193156D02*
X23622Y197671D01*
X23622Y193156D02*
X23624Y193055D01*
X23630Y192954D01*
X23639Y192853D01*
X23652Y192752D01*
X23669Y192652D01*
X23690Y192553D01*
X23714Y192455D01*
X23742Y192358D01*
X23774Y192261D01*
X23809Y192166D01*
X23848Y192073D01*
X23890Y191981D01*
X23936Y191890D01*
X23985Y191802D01*
X24037Y191715D01*
X24093Y191630D01*
X24151Y191547D01*
X24213Y191467D01*
X24278Y191389D01*
X24345Y191313D01*
X24415Y191240D01*
X24488Y191170D01*
X24564Y191103D01*
X24642Y191038D01*
X24722Y190976D01*
X24805Y190918D01*
X24890Y190862D01*
X24977Y190810D01*
X25065Y190761D01*
X25156Y190715D01*
X25248Y190673D01*
X25341Y190634D01*
X25436Y190599D01*
X25533Y190567D01*
X25630Y190539D01*
X25728Y190515D01*
X25827Y190494D01*
X25927Y190477D01*
X26028Y190464D01*
X26129Y190455D01*
X26230Y190449D01*
X26331Y190447D01*
X26331Y190446D02*
X31750Y190446D01*
X31750Y190447D02*
X31851Y190449D01*
X31952Y190455D01*
X32053Y190464D01*
X32154Y190477D01*
X32254Y190494D01*
X32353Y190515D01*
X32451Y190539D01*
X32548Y190567D01*
X32645Y190599D01*
X32740Y190634D01*
X32833Y190673D01*
X32925Y190715D01*
X33016Y190761D01*
X33104Y190810D01*
X33191Y190862D01*
X33276Y190918D01*
X33359Y190976D01*
X33439Y191038D01*
X33517Y191103D01*
X33593Y191170D01*
X33666Y191240D01*
X33736Y191313D01*
X33803Y191389D01*
X33868Y191467D01*
X33930Y191547D01*
X33988Y191630D01*
X34044Y191715D01*
X34096Y191801D01*
X34145Y191890D01*
X34191Y191981D01*
X34233Y192073D01*
X34272Y192166D01*
X34307Y192261D01*
X34339Y192358D01*
X34367Y192455D01*
X34391Y192553D01*
X34412Y192652D01*
X34429Y192752D01*
X34442Y192853D01*
X34451Y192954D01*
X34457Y193055D01*
X34459Y193156D01*
X34459Y197671D01*
X20913Y197671D01*
X20809Y197669D01*
X20706Y197663D01*
X20602Y197653D01*
X20499Y197639D01*
X20397Y197621D01*
X20296Y197600D01*
X20195Y197574D01*
X20096Y197545D01*
X19997Y197512D01*
X19900Y197475D01*
X19805Y197434D01*
X19711Y197390D01*
X19619Y197342D01*
X19529Y197291D01*
X19440Y197236D01*
X19354Y197178D01*
X19271Y197116D01*
X19189Y197052D01*
X19111Y196984D01*
X19035Y196914D01*
X18961Y196841D01*
X18891Y196764D01*
X18823Y196686D01*
X18759Y196604D01*
X18697Y196521D01*
X18639Y196435D01*
X18584Y196346D01*
X18533Y196256D01*
X18485Y196164D01*
X18441Y196070D01*
X18400Y195975D01*
X18363Y195878D01*
X18330Y195779D01*
X18301Y195680D01*
X18275Y195579D01*
X18254Y195478D01*
X18236Y195376D01*
X18222Y195273D01*
X18212Y195169D01*
X18206Y195066D01*
X18204Y194962D01*
X18203Y194962D02*
X18203Y191349D01*
X23622Y207297D02*
X23622Y211813D01*
X23622Y207297D02*
X23624Y207196D01*
X23630Y207095D01*
X23639Y206994D01*
X23652Y206893D01*
X23669Y206793D01*
X23690Y206694D01*
X23714Y206596D01*
X23742Y206499D01*
X23774Y206402D01*
X23809Y206307D01*
X23848Y206214D01*
X23890Y206122D01*
X23936Y206031D01*
X23985Y205943D01*
X24037Y205856D01*
X24093Y205771D01*
X24151Y205688D01*
X24213Y205608D01*
X24278Y205530D01*
X24345Y205454D01*
X24415Y205381D01*
X24488Y205311D01*
X24564Y205244D01*
X24642Y205179D01*
X24722Y205117D01*
X24805Y205059D01*
X24890Y205003D01*
X24977Y204951D01*
X25065Y204902D01*
X25156Y204856D01*
X25248Y204814D01*
X25341Y204775D01*
X25436Y204740D01*
X25533Y204708D01*
X25630Y204680D01*
X25728Y204656D01*
X25827Y204635D01*
X25927Y204618D01*
X26028Y204605D01*
X26129Y204596D01*
X26230Y204590D01*
X26331Y204588D01*
X30847Y204588D01*
X30966Y204590D01*
X31086Y204596D01*
X31205Y204606D01*
X31323Y204620D01*
X31442Y204637D01*
X31559Y204659D01*
X31676Y204684D01*
X31791Y204714D01*
X31906Y204747D01*
X32020Y204784D01*
X32132Y204824D01*
X32243Y204869D01*
X32352Y204917D01*
X32460Y204968D01*
X32566Y205023D01*
X32670Y205082D01*
X32772Y205144D01*
X32872Y205209D01*
X32970Y205278D01*
X33066Y205350D01*
X33159Y205425D01*
X33249Y205502D01*
X33337Y205583D01*
X33422Y205667D01*
X33504Y205754D01*
X33584Y205843D01*
X33660Y205935D01*
X33734Y206029D01*
X33804Y206126D01*
X33871Y206224D01*
X33935Y206325D01*
X33995Y206429D01*
X34052Y206534D01*
X34105Y206641D01*
X34155Y206749D01*
X34201Y206859D01*
X34243Y206971D01*
X34282Y207084D01*
X34317Y207198D01*
X34348Y207313D01*
X34376Y207430D01*
X34399Y207547D01*
X34419Y207664D01*
X34435Y207783D01*
X34447Y207902D01*
X34455Y208021D01*
X34459Y208140D01*
X34459Y208260D01*
X34455Y208379D01*
X34447Y208498D01*
X34435Y208617D01*
X34419Y208736D01*
X34399Y208853D01*
X34376Y208970D01*
X34348Y209087D01*
X34317Y209202D01*
X34282Y209316D01*
X34243Y209429D01*
X34201Y209541D01*
X34155Y209651D01*
X34105Y209759D01*
X34052Y209866D01*
X33995Y209971D01*
X33935Y210075D01*
X33871Y210176D01*
X33804Y210274D01*
X33734Y210371D01*
X33660Y210465D01*
X33584Y210557D01*
X33504Y210646D01*
X33422Y210733D01*
X33337Y210817D01*
X33249Y210898D01*
X33159Y210975D01*
X33066Y211050D01*
X32970Y211122D01*
X32872Y211191D01*
X32772Y211256D01*
X32670Y211318D01*
X32566Y211377D01*
X32460Y211432D01*
X32352Y211483D01*
X32243Y211531D01*
X32132Y211576D01*
X32020Y211616D01*
X31906Y211653D01*
X31791Y211686D01*
X31676Y211716D01*
X31559Y211741D01*
X31442Y211763D01*
X31323Y211780D01*
X31205Y211794D01*
X31086Y211804D01*
X30966Y211810D01*
X30847Y211812D01*
X30847Y211813D02*
X29041Y211813D01*
X29041Y204588D01*
X23622Y233623D02*
X39878Y233623D01*
X23622Y233623D02*
X23622Y229107D01*
X23624Y229006D01*
X23630Y228905D01*
X23639Y228804D01*
X23652Y228703D01*
X23669Y228603D01*
X23690Y228504D01*
X23714Y228406D01*
X23742Y228309D01*
X23774Y228212D01*
X23809Y228117D01*
X23848Y228024D01*
X23890Y227932D01*
X23936Y227841D01*
X23985Y227753D01*
X24037Y227666D01*
X24093Y227581D01*
X24151Y227498D01*
X24213Y227418D01*
X24278Y227340D01*
X24345Y227264D01*
X24415Y227191D01*
X24488Y227121D01*
X24564Y227054D01*
X24642Y226989D01*
X24722Y226927D01*
X24805Y226869D01*
X24890Y226813D01*
X24977Y226761D01*
X25065Y226712D01*
X25156Y226666D01*
X25248Y226624D01*
X25341Y226585D01*
X25436Y226550D01*
X25533Y226518D01*
X25630Y226490D01*
X25728Y226466D01*
X25827Y226445D01*
X25927Y226428D01*
X26028Y226415D01*
X26129Y226406D01*
X26230Y226400D01*
X26331Y226398D01*
X31750Y226398D01*
X31851Y226400D01*
X31952Y226406D01*
X32053Y226415D01*
X32154Y226428D01*
X32254Y226445D01*
X32353Y226466D01*
X32451Y226490D01*
X32548Y226518D01*
X32645Y226550D01*
X32740Y226585D01*
X32833Y226624D01*
X32925Y226666D01*
X33016Y226712D01*
X33104Y226761D01*
X33191Y226813D01*
X33276Y226869D01*
X33359Y226927D01*
X33439Y226989D01*
X33517Y227054D01*
X33593Y227121D01*
X33666Y227191D01*
X33736Y227264D01*
X33803Y227340D01*
X33868Y227418D01*
X33930Y227498D01*
X33988Y227581D01*
X34044Y227666D01*
X34096Y227752D01*
X34145Y227841D01*
X34191Y227932D01*
X34233Y228024D01*
X34272Y228117D01*
X34307Y228212D01*
X34339Y228309D01*
X34367Y228406D01*
X34391Y228504D01*
X34412Y228603D01*
X34429Y228703D01*
X34442Y228804D01*
X34451Y228905D01*
X34457Y229006D01*
X34459Y229107D01*
X34459Y233623D01*
X23622Y243249D02*
X23622Y247764D01*
X23622Y243249D02*
X23624Y243148D01*
X23630Y243047D01*
X23639Y242946D01*
X23652Y242845D01*
X23669Y242745D01*
X23690Y242646D01*
X23714Y242548D01*
X23742Y242451D01*
X23774Y242354D01*
X23809Y242259D01*
X23848Y242166D01*
X23890Y242074D01*
X23936Y241983D01*
X23985Y241895D01*
X24037Y241808D01*
X24093Y241723D01*
X24151Y241640D01*
X24213Y241560D01*
X24278Y241482D01*
X24345Y241406D01*
X24415Y241333D01*
X24488Y241263D01*
X24564Y241196D01*
X24642Y241131D01*
X24722Y241069D01*
X24805Y241011D01*
X24890Y240955D01*
X24977Y240903D01*
X25065Y240854D01*
X25156Y240808D01*
X25248Y240766D01*
X25341Y240727D01*
X25436Y240692D01*
X25533Y240660D01*
X25630Y240632D01*
X25728Y240608D01*
X25827Y240587D01*
X25927Y240570D01*
X26028Y240557D01*
X26129Y240548D01*
X26230Y240542D01*
X26331Y240540D01*
X30847Y240540D01*
X30966Y240542D01*
X31086Y240548D01*
X31205Y240558D01*
X31323Y240572D01*
X31442Y240589D01*
X31559Y240611D01*
X31676Y240636D01*
X31791Y240666D01*
X31906Y240699D01*
X32020Y240736D01*
X32132Y240776D01*
X32243Y240821D01*
X32352Y240869D01*
X32460Y240920D01*
X32566Y240975D01*
X32670Y241034D01*
X32772Y241096D01*
X32872Y241161D01*
X32970Y241230D01*
X33066Y241302D01*
X33159Y241377D01*
X33249Y241454D01*
X33337Y241535D01*
X33422Y241619D01*
X33504Y241706D01*
X33584Y241795D01*
X33660Y241887D01*
X33734Y241981D01*
X33804Y242078D01*
X33871Y242176D01*
X33935Y242277D01*
X33995Y242381D01*
X34052Y242486D01*
X34105Y242593D01*
X34155Y242701D01*
X34201Y242811D01*
X34243Y242923D01*
X34282Y243036D01*
X34317Y243150D01*
X34348Y243265D01*
X34376Y243382D01*
X34399Y243499D01*
X34419Y243616D01*
X34435Y243735D01*
X34447Y243854D01*
X34455Y243973D01*
X34459Y244092D01*
X34459Y244212D01*
X34455Y244331D01*
X34447Y244450D01*
X34435Y244569D01*
X34419Y244688D01*
X34399Y244805D01*
X34376Y244922D01*
X34348Y245039D01*
X34317Y245154D01*
X34282Y245268D01*
X34243Y245381D01*
X34201Y245493D01*
X34155Y245603D01*
X34105Y245711D01*
X34052Y245818D01*
X33995Y245923D01*
X33935Y246027D01*
X33871Y246128D01*
X33804Y246226D01*
X33734Y246323D01*
X33660Y246417D01*
X33584Y246509D01*
X33504Y246598D01*
X33422Y246685D01*
X33337Y246769D01*
X33249Y246850D01*
X33159Y246927D01*
X33066Y247002D01*
X32970Y247074D01*
X32872Y247143D01*
X32772Y247208D01*
X32670Y247270D01*
X32566Y247329D01*
X32460Y247384D01*
X32352Y247435D01*
X32243Y247483D01*
X32132Y247528D01*
X32020Y247568D01*
X31906Y247605D01*
X31791Y247638D01*
X31676Y247668D01*
X31559Y247693D01*
X31442Y247715D01*
X31323Y247732D01*
X31205Y247746D01*
X31086Y247756D01*
X30966Y247762D01*
X30847Y247764D01*
X29041Y247764D01*
X29041Y240540D01*
X26331Y254324D02*
X39878Y254324D01*
X26331Y254324D02*
X26230Y254326D01*
X26129Y254332D01*
X26028Y254341D01*
X25927Y254354D01*
X25827Y254371D01*
X25728Y254392D01*
X25630Y254416D01*
X25533Y254444D01*
X25436Y254476D01*
X25341Y254511D01*
X25248Y254550D01*
X25156Y254592D01*
X25065Y254638D01*
X24977Y254687D01*
X24890Y254739D01*
X24805Y254795D01*
X24722Y254853D01*
X24642Y254915D01*
X24564Y254980D01*
X24488Y255047D01*
X24415Y255117D01*
X24345Y255190D01*
X24278Y255266D01*
X24213Y255344D01*
X24151Y255424D01*
X24093Y255507D01*
X24037Y255592D01*
X23985Y255679D01*
X23936Y255767D01*
X23890Y255858D01*
X23848Y255950D01*
X23809Y256043D01*
X23774Y256138D01*
X23742Y256235D01*
X23714Y256332D01*
X23690Y256430D01*
X23669Y256529D01*
X23652Y256629D01*
X23639Y256730D01*
X23630Y256831D01*
X23624Y256932D01*
X23622Y257033D01*
X32653Y271631D02*
X32653Y276146D01*
X32654Y276146D02*
X32652Y276279D01*
X32646Y276411D01*
X32636Y276543D01*
X32623Y276675D01*
X32605Y276807D01*
X32584Y276937D01*
X32559Y277068D01*
X32530Y277197D01*
X32497Y277325D01*
X32461Y277453D01*
X32421Y277579D01*
X32377Y277704D01*
X32329Y277828D01*
X32278Y277950D01*
X32223Y278071D01*
X32165Y278190D01*
X32103Y278308D01*
X32038Y278423D01*
X31969Y278537D01*
X31898Y278648D01*
X31822Y278757D01*
X31744Y278864D01*
X31663Y278969D01*
X31578Y279071D01*
X31491Y279171D01*
X31401Y279268D01*
X31308Y279363D01*
X31212Y279454D01*
X31114Y279543D01*
X31013Y279629D01*
X30909Y279712D01*
X30803Y279792D01*
X30695Y279868D01*
X30585Y279942D01*
X30472Y280012D01*
X30358Y280079D01*
X30241Y280142D01*
X30123Y280202D01*
X30003Y280259D01*
X29881Y280312D01*
X29758Y280361D01*
X29634Y280407D01*
X29508Y280449D01*
X29381Y280487D01*
X29253Y280522D01*
X29124Y280553D01*
X28995Y280580D01*
X28864Y280603D01*
X28733Y280623D01*
X28601Y280638D01*
X28469Y280650D01*
X28337Y280658D01*
X28204Y280662D01*
X28072Y280662D01*
X27939Y280658D01*
X27807Y280650D01*
X27675Y280638D01*
X27543Y280623D01*
X27412Y280603D01*
X27281Y280580D01*
X27152Y280553D01*
X27023Y280522D01*
X26895Y280487D01*
X26768Y280449D01*
X26642Y280407D01*
X26518Y280361D01*
X26395Y280312D01*
X26273Y280259D01*
X26153Y280202D01*
X26035Y280142D01*
X25918Y280079D01*
X25804Y280012D01*
X25691Y279942D01*
X25581Y279868D01*
X25473Y279792D01*
X25367Y279712D01*
X25263Y279629D01*
X25162Y279543D01*
X25064Y279454D01*
X24968Y279363D01*
X24875Y279268D01*
X24785Y279171D01*
X24698Y279071D01*
X24613Y278969D01*
X24532Y278864D01*
X24454Y278757D01*
X24378Y278648D01*
X24307Y278537D01*
X24238Y278423D01*
X24173Y278308D01*
X24111Y278190D01*
X24053Y278071D01*
X23998Y277950D01*
X23947Y277828D01*
X23899Y277704D01*
X23855Y277579D01*
X23815Y277453D01*
X23779Y277325D01*
X23746Y277197D01*
X23717Y277068D01*
X23692Y276937D01*
X23671Y276807D01*
X23653Y276675D01*
X23640Y276543D01*
X23630Y276411D01*
X23624Y276279D01*
X23622Y276146D01*
X23622Y271631D01*
X39878Y271631D01*
X39878Y276146D01*
X39876Y276265D01*
X39870Y276385D01*
X39860Y276504D01*
X39846Y276622D01*
X39829Y276741D01*
X39807Y276858D01*
X39782Y276975D01*
X39752Y277090D01*
X39719Y277205D01*
X39682Y277319D01*
X39642Y277431D01*
X39597Y277542D01*
X39549Y277651D01*
X39498Y277759D01*
X39443Y277865D01*
X39384Y277969D01*
X39322Y278071D01*
X39257Y278171D01*
X39188Y278269D01*
X39116Y278365D01*
X39041Y278458D01*
X38964Y278548D01*
X38883Y278636D01*
X38799Y278721D01*
X38712Y278803D01*
X38623Y278883D01*
X38531Y278959D01*
X38437Y279033D01*
X38340Y279103D01*
X38242Y279170D01*
X38141Y279234D01*
X38037Y279294D01*
X37932Y279351D01*
X37825Y279404D01*
X37717Y279454D01*
X37607Y279500D01*
X37495Y279542D01*
X37382Y279581D01*
X37268Y279616D01*
X37153Y279647D01*
X37036Y279675D01*
X36919Y279698D01*
X36802Y279718D01*
X36683Y279734D01*
X36564Y279746D01*
X36445Y279754D01*
X36326Y279758D01*
X36206Y279758D01*
X36087Y279754D01*
X35968Y279746D01*
X35849Y279734D01*
X35730Y279718D01*
X35613Y279698D01*
X35496Y279675D01*
X35379Y279647D01*
X35264Y279616D01*
X35150Y279581D01*
X35037Y279542D01*
X34925Y279500D01*
X34815Y279454D01*
X34707Y279404D01*
X34600Y279351D01*
X34495Y279294D01*
X34391Y279234D01*
X34290Y279170D01*
X34192Y279103D01*
X34095Y279033D01*
X34001Y278959D01*
X33909Y278883D01*
X33820Y278803D01*
X33733Y278721D01*
X33649Y278636D01*
X33568Y278548D01*
X33491Y278458D01*
X33416Y278365D01*
X33344Y278269D01*
X33275Y278171D01*
X33210Y278071D01*
X33148Y277969D01*
X33089Y277865D01*
X33034Y277759D01*
X32983Y277651D01*
X32935Y277542D01*
X32890Y277431D01*
X32850Y277319D01*
X32813Y277205D01*
X32780Y277090D01*
X32750Y276975D01*
X32725Y276858D01*
X32703Y276741D01*
X32686Y276622D01*
X32672Y276504D01*
X32662Y276385D01*
X32656Y276265D01*
X32654Y276146D01*
X34459Y286356D02*
X23622Y286356D01*
X38975Y285905D02*
X39878Y285905D01*
X39878Y286808D01*
X38975Y286808D01*
X38975Y285905D01*
X23622Y295371D02*
X23622Y298983D01*
X23622Y295371D02*
X23624Y295270D01*
X23630Y295169D01*
X23639Y295068D01*
X23652Y294967D01*
X23669Y294867D01*
X23690Y294768D01*
X23714Y294670D01*
X23742Y294573D01*
X23774Y294476D01*
X23809Y294381D01*
X23848Y294288D01*
X23890Y294196D01*
X23936Y294105D01*
X23985Y294017D01*
X24037Y293930D01*
X24093Y293845D01*
X24151Y293762D01*
X24213Y293682D01*
X24278Y293604D01*
X24345Y293528D01*
X24415Y293455D01*
X24488Y293385D01*
X24564Y293318D01*
X24642Y293253D01*
X24722Y293191D01*
X24805Y293133D01*
X24890Y293077D01*
X24977Y293025D01*
X25065Y292976D01*
X25156Y292930D01*
X25248Y292888D01*
X25341Y292849D01*
X25436Y292814D01*
X25533Y292782D01*
X25630Y292754D01*
X25728Y292730D01*
X25827Y292709D01*
X25927Y292692D01*
X26028Y292679D01*
X26129Y292670D01*
X26230Y292664D01*
X26331Y292662D01*
X26331Y292661D02*
X31750Y292661D01*
X31750Y292662D02*
X31851Y292664D01*
X31952Y292670D01*
X32053Y292679D01*
X32154Y292692D01*
X32254Y292709D01*
X32353Y292730D01*
X32451Y292754D01*
X32548Y292782D01*
X32645Y292814D01*
X32740Y292849D01*
X32833Y292888D01*
X32925Y292930D01*
X33016Y292976D01*
X33104Y293025D01*
X33191Y293077D01*
X33276Y293133D01*
X33359Y293191D01*
X33439Y293253D01*
X33517Y293318D01*
X33593Y293385D01*
X33666Y293455D01*
X33736Y293528D01*
X33803Y293604D01*
X33868Y293682D01*
X33930Y293762D01*
X33988Y293845D01*
X34044Y293930D01*
X34096Y294017D01*
X34145Y294105D01*
X34191Y294196D01*
X34233Y294288D01*
X34272Y294381D01*
X34307Y294476D01*
X34339Y294573D01*
X34367Y294670D01*
X34391Y294768D01*
X34412Y294867D01*
X34429Y294967D01*
X34442Y295068D01*
X34451Y295169D01*
X34457Y295270D01*
X34459Y295371D01*
X34459Y298983D01*
X23622Y307354D02*
X23622Y310967D01*
X23622Y307354D02*
X23624Y307253D01*
X23630Y307152D01*
X23639Y307051D01*
X23652Y306950D01*
X23669Y306850D01*
X23690Y306751D01*
X23714Y306653D01*
X23742Y306556D01*
X23774Y306459D01*
X23809Y306364D01*
X23848Y306271D01*
X23890Y306179D01*
X23936Y306088D01*
X23985Y306000D01*
X24037Y305913D01*
X24093Y305828D01*
X24151Y305745D01*
X24213Y305665D01*
X24278Y305587D01*
X24345Y305511D01*
X24415Y305438D01*
X24488Y305368D01*
X24564Y305301D01*
X24642Y305236D01*
X24722Y305174D01*
X24805Y305116D01*
X24890Y305060D01*
X24977Y305008D01*
X25065Y304959D01*
X25156Y304913D01*
X25248Y304871D01*
X25341Y304832D01*
X25436Y304797D01*
X25533Y304765D01*
X25630Y304737D01*
X25728Y304713D01*
X25827Y304692D01*
X25927Y304675D01*
X26028Y304662D01*
X26129Y304653D01*
X26230Y304647D01*
X26331Y304645D01*
X31750Y304645D01*
X31851Y304647D01*
X31952Y304653D01*
X32053Y304662D01*
X32154Y304675D01*
X32254Y304692D01*
X32353Y304713D01*
X32451Y304737D01*
X32548Y304765D01*
X32645Y304797D01*
X32740Y304832D01*
X32833Y304871D01*
X32925Y304913D01*
X33016Y304959D01*
X33104Y305008D01*
X33191Y305060D01*
X33276Y305116D01*
X33359Y305174D01*
X33439Y305236D01*
X33517Y305301D01*
X33593Y305368D01*
X33666Y305438D01*
X33736Y305511D01*
X33803Y305587D01*
X33868Y305665D01*
X33930Y305745D01*
X33988Y305828D01*
X34044Y305913D01*
X34096Y306000D01*
X34145Y306088D01*
X34191Y306179D01*
X34233Y306271D01*
X34272Y306364D01*
X34307Y306459D01*
X34339Y306556D01*
X34367Y306653D01*
X34391Y306751D01*
X34412Y306850D01*
X34429Y306950D01*
X34442Y307051D01*
X34451Y307152D01*
X34457Y307253D01*
X34459Y307354D01*
X34459Y310967D01*
X39878Y317133D02*
X23622Y317133D01*
X34459Y317133D02*
X34459Y321648D01*
X34457Y321752D01*
X34451Y321855D01*
X34441Y321959D01*
X34427Y322062D01*
X34409Y322164D01*
X34388Y322265D01*
X34362Y322366D01*
X34333Y322465D01*
X34300Y322564D01*
X34263Y322661D01*
X34222Y322756D01*
X34178Y322850D01*
X34130Y322942D01*
X34079Y323032D01*
X34024Y323121D01*
X33966Y323207D01*
X33904Y323290D01*
X33840Y323372D01*
X33772Y323450D01*
X33702Y323526D01*
X33629Y323600D01*
X33552Y323670D01*
X33474Y323738D01*
X33392Y323802D01*
X33309Y323864D01*
X33223Y323922D01*
X33134Y323977D01*
X33044Y324028D01*
X32952Y324076D01*
X32858Y324120D01*
X32763Y324161D01*
X32666Y324198D01*
X32567Y324231D01*
X32468Y324260D01*
X32367Y324286D01*
X32266Y324307D01*
X32164Y324325D01*
X32061Y324339D01*
X31957Y324349D01*
X31854Y324355D01*
X31750Y324357D01*
X23622Y324357D01*
X23622Y331166D02*
X34459Y331166D01*
X38975Y330714D02*
X39878Y330714D01*
X39878Y331617D01*
X38975Y331617D01*
X38975Y330714D01*
X30847Y337453D02*
X27234Y337453D01*
X30847Y337454D02*
X30966Y337456D01*
X31086Y337462D01*
X31205Y337472D01*
X31323Y337486D01*
X31442Y337503D01*
X31559Y337525D01*
X31676Y337550D01*
X31791Y337580D01*
X31906Y337613D01*
X32020Y337650D01*
X32132Y337690D01*
X32243Y337735D01*
X32352Y337783D01*
X32460Y337834D01*
X32566Y337889D01*
X32670Y337948D01*
X32772Y338010D01*
X32872Y338075D01*
X32970Y338144D01*
X33066Y338216D01*
X33159Y338291D01*
X33249Y338368D01*
X33337Y338449D01*
X33422Y338533D01*
X33504Y338620D01*
X33584Y338709D01*
X33660Y338801D01*
X33734Y338895D01*
X33804Y338992D01*
X33871Y339090D01*
X33935Y339191D01*
X33995Y339295D01*
X34052Y339400D01*
X34105Y339507D01*
X34155Y339615D01*
X34201Y339725D01*
X34243Y339837D01*
X34282Y339950D01*
X34317Y340064D01*
X34348Y340179D01*
X34376Y340296D01*
X34399Y340413D01*
X34419Y340530D01*
X34435Y340649D01*
X34447Y340768D01*
X34455Y340887D01*
X34459Y341006D01*
X34459Y341126D01*
X34455Y341245D01*
X34447Y341364D01*
X34435Y341483D01*
X34419Y341602D01*
X34399Y341719D01*
X34376Y341836D01*
X34348Y341953D01*
X34317Y342068D01*
X34282Y342182D01*
X34243Y342295D01*
X34201Y342407D01*
X34155Y342517D01*
X34105Y342625D01*
X34052Y342732D01*
X33995Y342837D01*
X33935Y342941D01*
X33871Y343042D01*
X33804Y343140D01*
X33734Y343237D01*
X33660Y343331D01*
X33584Y343423D01*
X33504Y343512D01*
X33422Y343599D01*
X33337Y343683D01*
X33249Y343764D01*
X33159Y343841D01*
X33066Y343916D01*
X32970Y343988D01*
X32872Y344057D01*
X32772Y344122D01*
X32670Y344184D01*
X32566Y344243D01*
X32460Y344298D01*
X32352Y344349D01*
X32243Y344397D01*
X32132Y344442D01*
X32020Y344482D01*
X31906Y344519D01*
X31791Y344552D01*
X31676Y344582D01*
X31559Y344607D01*
X31442Y344629D01*
X31323Y344646D01*
X31205Y344660D01*
X31086Y344670D01*
X30966Y344676D01*
X30847Y344678D01*
X27234Y344678D01*
X27115Y344676D01*
X26995Y344670D01*
X26876Y344660D01*
X26758Y344646D01*
X26639Y344629D01*
X26522Y344607D01*
X26405Y344582D01*
X26290Y344552D01*
X26175Y344519D01*
X26061Y344482D01*
X25949Y344442D01*
X25838Y344397D01*
X25729Y344349D01*
X25621Y344298D01*
X25515Y344243D01*
X25411Y344184D01*
X25309Y344122D01*
X25209Y344057D01*
X25111Y343988D01*
X25015Y343916D01*
X24922Y343841D01*
X24832Y343764D01*
X24744Y343683D01*
X24659Y343599D01*
X24577Y343512D01*
X24497Y343423D01*
X24421Y343331D01*
X24347Y343237D01*
X24277Y343140D01*
X24210Y343042D01*
X24146Y342941D01*
X24086Y342837D01*
X24029Y342732D01*
X23976Y342625D01*
X23926Y342517D01*
X23880Y342407D01*
X23838Y342295D01*
X23799Y342182D01*
X23764Y342068D01*
X23733Y341953D01*
X23705Y341836D01*
X23682Y341719D01*
X23662Y341602D01*
X23646Y341483D01*
X23634Y341364D01*
X23626Y341245D01*
X23622Y341126D01*
X23622Y341006D01*
X23626Y340887D01*
X23634Y340768D01*
X23646Y340649D01*
X23662Y340530D01*
X23682Y340413D01*
X23705Y340296D01*
X23733Y340179D01*
X23764Y340064D01*
X23799Y339950D01*
X23838Y339837D01*
X23880Y339725D01*
X23926Y339615D01*
X23976Y339507D01*
X24029Y339400D01*
X24086Y339295D01*
X24146Y339191D01*
X24210Y339090D01*
X24277Y338992D01*
X24347Y338895D01*
X24421Y338801D01*
X24497Y338709D01*
X24577Y338620D01*
X24659Y338533D01*
X24744Y338449D01*
X24832Y338368D01*
X24922Y338291D01*
X25015Y338216D01*
X25111Y338144D01*
X25209Y338075D01*
X25309Y338010D01*
X25411Y337948D01*
X25515Y337889D01*
X25621Y337834D01*
X25729Y337783D01*
X25838Y337735D01*
X25949Y337690D01*
X26061Y337650D01*
X26175Y337613D01*
X26290Y337580D01*
X26405Y337550D01*
X26522Y337525D01*
X26639Y337503D01*
X26758Y337486D01*
X26876Y337472D01*
X26995Y337462D01*
X27115Y337456D01*
X27234Y337454D01*
D11*
X163435Y49361D02*
X165156Y45057D01*
X165157Y45057D02*
X165193Y44971D01*
X165234Y44886D01*
X165277Y44803D01*
X165325Y44722D01*
X165375Y44643D01*
X165429Y44566D01*
X165486Y44491D01*
X165546Y44419D01*
X165610Y44350D01*
X165676Y44283D01*
X165744Y44219D01*
X165816Y44158D01*
X165890Y44101D01*
X165966Y44046D01*
X166044Y43994D01*
X166125Y43946D01*
X166207Y43902D01*
X166292Y43860D01*
X166378Y43823D01*
X166465Y43789D01*
X166554Y43759D01*
X166644Y43732D01*
X166735Y43709D01*
X166827Y43690D01*
X166920Y43676D01*
X167013Y43664D01*
X167107Y43657D01*
X167200Y43654D01*
X167294Y43655D01*
X167388Y43660D01*
X167481Y43668D01*
X167574Y43681D01*
X167667Y43697D01*
X167758Y43718D01*
X167849Y43742D01*
X167939Y43770D01*
X168027Y43802D01*
X168114Y43837D01*
X168199Y43876D01*
X168283Y43918D01*
X168365Y43965D01*
X168444Y44014D01*
X168522Y44067D01*
X168597Y44123D01*
X168670Y44182D01*
X168741Y44244D01*
X168808Y44309D01*
X168873Y44377D01*
X168935Y44447D01*
X168994Y44520D01*
X169050Y44596D01*
X169103Y44673D01*
X169152Y44753D01*
X169198Y44835D01*
X169240Y44919D01*
X169279Y45004D01*
X169315Y45091D01*
X169346Y45179D01*
X169374Y45269D01*
X169398Y45360D01*
X169418Y45451D01*
X169435Y45544D01*
X169447Y45637D01*
X169456Y45730D01*
X169460Y45824D01*
X169461Y45918D01*
X169460Y45918D02*
X169454Y46153D01*
X169442Y46387D01*
X169425Y46622D01*
X169401Y46856D01*
X169373Y47089D01*
X169338Y47321D01*
X169298Y47553D01*
X169253Y47784D01*
X169202Y48013D01*
X169146Y48241D01*
X169084Y48468D01*
X169016Y48693D01*
X168943Y48917D01*
X168865Y49138D01*
X168782Y49358D01*
X168693Y49576D01*
X168599Y49791D01*
X163435Y49361D02*
X163399Y49447D01*
X163358Y49532D01*
X163315Y49615D01*
X163267Y49696D01*
X163217Y49775D01*
X163163Y49852D01*
X163106Y49927D01*
X163046Y49999D01*
X162982Y50068D01*
X162916Y50135D01*
X162848Y50199D01*
X162776Y50260D01*
X162702Y50317D01*
X162626Y50372D01*
X162548Y50424D01*
X162467Y50472D01*
X162385Y50516D01*
X162300Y50558D01*
X162214Y50595D01*
X162127Y50629D01*
X162038Y50659D01*
X161948Y50686D01*
X161857Y50709D01*
X161765Y50728D01*
X161672Y50742D01*
X161579Y50754D01*
X161485Y50761D01*
X161392Y50764D01*
X161298Y50763D01*
X161204Y50758D01*
X161111Y50750D01*
X161018Y50737D01*
X160925Y50721D01*
X160834Y50700D01*
X160743Y50676D01*
X160653Y50648D01*
X160565Y50616D01*
X160478Y50581D01*
X160393Y50542D01*
X160309Y50500D01*
X160227Y50453D01*
X160148Y50404D01*
X160070Y50351D01*
X159995Y50295D01*
X159922Y50236D01*
X159851Y50174D01*
X159784Y50109D01*
X159719Y50041D01*
X159657Y49971D01*
X159598Y49898D01*
X159542Y49822D01*
X159489Y49745D01*
X159440Y49665D01*
X159394Y49583D01*
X159352Y49499D01*
X159313Y49414D01*
X159277Y49327D01*
X159246Y49239D01*
X159218Y49149D01*
X159194Y49058D01*
X159174Y48967D01*
X159157Y48874D01*
X159145Y48781D01*
X159136Y48688D01*
X159132Y48594D01*
X159131Y48500D01*
X159131Y48501D02*
X159141Y48155D01*
X159158Y47811D01*
X159183Y47466D01*
X159216Y47123D01*
X159258Y46780D01*
X159308Y46438D01*
X159365Y46098D01*
X159431Y45759D01*
X159505Y45421D01*
X159587Y45086D01*
X159676Y44753D01*
X159774Y44421D01*
X159879Y44093D01*
X159992Y43766D01*
X159131Y59232D02*
X159131Y63536D01*
X159131Y59232D02*
X159133Y59133D01*
X159139Y59034D01*
X159148Y58936D01*
X159161Y58838D01*
X159178Y58740D01*
X159199Y58644D01*
X159223Y58548D01*
X159251Y58453D01*
X159283Y58359D01*
X159318Y58267D01*
X159357Y58176D01*
X159399Y58086D01*
X159445Y57999D01*
X159494Y57913D01*
X159546Y57829D01*
X159601Y57747D01*
X159660Y57667D01*
X159721Y57589D01*
X159785Y57514D01*
X159853Y57442D01*
X159923Y57372D01*
X159995Y57304D01*
X160070Y57240D01*
X160148Y57179D01*
X160228Y57120D01*
X160310Y57065D01*
X160394Y57013D01*
X160480Y56964D01*
X160567Y56918D01*
X160657Y56876D01*
X160748Y56837D01*
X160840Y56802D01*
X160934Y56770D01*
X161029Y56742D01*
X161125Y56718D01*
X161221Y56697D01*
X161319Y56680D01*
X161417Y56667D01*
X161515Y56658D01*
X161614Y56652D01*
X161713Y56650D01*
X161713Y56649D02*
X166017Y56649D01*
X166017Y56650D02*
X166133Y56652D01*
X166249Y56658D01*
X166365Y56668D01*
X166481Y56681D01*
X166596Y56699D01*
X166710Y56720D01*
X166824Y56746D01*
X166936Y56775D01*
X167048Y56808D01*
X167158Y56845D01*
X167267Y56885D01*
X167375Y56929D01*
X167481Y56977D01*
X167585Y57028D01*
X167688Y57083D01*
X167789Y57141D01*
X167887Y57202D01*
X167984Y57267D01*
X168078Y57335D01*
X168170Y57406D01*
X168260Y57481D01*
X168347Y57558D01*
X168431Y57638D01*
X168512Y57721D01*
X168591Y57807D01*
X168667Y57895D01*
X168740Y57986D01*
X168809Y58079D01*
X168876Y58174D01*
X168939Y58272D01*
X168999Y58371D01*
X169055Y58473D01*
X169108Y58577D01*
X169158Y58682D01*
X169203Y58789D01*
X169246Y58897D01*
X169284Y59007D01*
X169319Y59118D01*
X169350Y59230D01*
X169377Y59343D01*
X169401Y59457D01*
X169420Y59572D01*
X169436Y59687D01*
X169448Y59803D01*
X169456Y59919D01*
X169460Y60035D01*
X169460Y60151D01*
X169456Y60267D01*
X169448Y60383D01*
X169436Y60499D01*
X169420Y60614D01*
X169401Y60729D01*
X169377Y60843D01*
X169350Y60956D01*
X169319Y61068D01*
X169284Y61179D01*
X169246Y61289D01*
X169203Y61397D01*
X169158Y61504D01*
X169108Y61609D01*
X169055Y61713D01*
X168999Y61814D01*
X168939Y61914D01*
X168876Y62012D01*
X168809Y62107D01*
X168740Y62200D01*
X168667Y62291D01*
X168591Y62379D01*
X168512Y62465D01*
X168431Y62548D01*
X168347Y62628D01*
X168260Y62705D01*
X168170Y62780D01*
X168078Y62851D01*
X167984Y62919D01*
X167887Y62984D01*
X167789Y63045D01*
X167688Y63103D01*
X167585Y63158D01*
X167481Y63209D01*
X167375Y63257D01*
X167267Y63301D01*
X167158Y63341D01*
X167048Y63378D01*
X166936Y63411D01*
X166824Y63440D01*
X166710Y63466D01*
X166596Y63487D01*
X166481Y63505D01*
X166365Y63518D01*
X166249Y63528D01*
X166133Y63534D01*
X166017Y63536D01*
X164296Y63536D01*
X164296Y56649D01*
X169460Y70029D02*
X159131Y70029D01*
X169460Y70029D02*
X169460Y74333D01*
X169458Y74432D01*
X169452Y74531D01*
X169443Y74629D01*
X169430Y74727D01*
X169413Y74825D01*
X169392Y74921D01*
X169368Y75017D01*
X169340Y75112D01*
X169308Y75206D01*
X169273Y75298D01*
X169234Y75389D01*
X169192Y75479D01*
X169146Y75566D01*
X169097Y75652D01*
X169045Y75736D01*
X168990Y75818D01*
X168931Y75898D01*
X168870Y75976D01*
X168806Y76051D01*
X168738Y76123D01*
X168668Y76193D01*
X168596Y76261D01*
X168521Y76325D01*
X168443Y76386D01*
X168363Y76445D01*
X168281Y76500D01*
X168197Y76552D01*
X168111Y76601D01*
X168024Y76647D01*
X167934Y76689D01*
X167843Y76728D01*
X167751Y76763D01*
X167657Y76795D01*
X167562Y76823D01*
X167466Y76847D01*
X167370Y76868D01*
X167272Y76885D01*
X167174Y76898D01*
X167076Y76907D01*
X166977Y76913D01*
X166878Y76915D01*
X159131Y76915D01*
X165156Y84699D02*
X163435Y89003D01*
X165157Y84699D02*
X165193Y84613D01*
X165234Y84528D01*
X165277Y84445D01*
X165325Y84364D01*
X165375Y84285D01*
X165429Y84208D01*
X165486Y84133D01*
X165546Y84061D01*
X165610Y83992D01*
X165676Y83925D01*
X165744Y83861D01*
X165816Y83800D01*
X165890Y83743D01*
X165966Y83688D01*
X166044Y83636D01*
X166125Y83588D01*
X166207Y83544D01*
X166292Y83502D01*
X166378Y83465D01*
X166465Y83431D01*
X166554Y83401D01*
X166644Y83374D01*
X166735Y83351D01*
X166827Y83332D01*
X166920Y83318D01*
X167013Y83306D01*
X167107Y83299D01*
X167200Y83296D01*
X167294Y83297D01*
X167388Y83302D01*
X167481Y83310D01*
X167574Y83323D01*
X167667Y83339D01*
X167758Y83360D01*
X167849Y83384D01*
X167939Y83412D01*
X168027Y83444D01*
X168114Y83479D01*
X168199Y83518D01*
X168283Y83560D01*
X168365Y83607D01*
X168444Y83656D01*
X168522Y83709D01*
X168597Y83765D01*
X168670Y83824D01*
X168741Y83886D01*
X168808Y83951D01*
X168873Y84019D01*
X168935Y84089D01*
X168994Y84162D01*
X169050Y84238D01*
X169103Y84315D01*
X169152Y84395D01*
X169198Y84477D01*
X169240Y84561D01*
X169279Y84646D01*
X169315Y84733D01*
X169346Y84821D01*
X169374Y84911D01*
X169398Y85002D01*
X169418Y85093D01*
X169435Y85186D01*
X169447Y85279D01*
X169456Y85372D01*
X169460Y85466D01*
X169461Y85560D01*
X169460Y85560D02*
X169454Y85795D01*
X169442Y86029D01*
X169425Y86264D01*
X169401Y86498D01*
X169373Y86731D01*
X169338Y86963D01*
X169298Y87195D01*
X169253Y87426D01*
X169202Y87655D01*
X169146Y87883D01*
X169084Y88110D01*
X169016Y88335D01*
X168943Y88559D01*
X168865Y88780D01*
X168782Y89000D01*
X168693Y89218D01*
X168599Y89433D01*
X163435Y89003D02*
X163399Y89089D01*
X163358Y89174D01*
X163315Y89257D01*
X163267Y89338D01*
X163217Y89417D01*
X163163Y89494D01*
X163106Y89569D01*
X163046Y89641D01*
X162982Y89710D01*
X162916Y89777D01*
X162848Y89841D01*
X162776Y89902D01*
X162702Y89959D01*
X162626Y90014D01*
X162548Y90066D01*
X162467Y90114D01*
X162385Y90158D01*
X162300Y90200D01*
X162214Y90237D01*
X162127Y90271D01*
X162038Y90301D01*
X161948Y90328D01*
X161857Y90351D01*
X161765Y90370D01*
X161672Y90384D01*
X161579Y90396D01*
X161485Y90403D01*
X161392Y90406D01*
X161298Y90405D01*
X161204Y90400D01*
X161111Y90392D01*
X161018Y90379D01*
X160925Y90363D01*
X160834Y90342D01*
X160743Y90318D01*
X160653Y90290D01*
X160565Y90258D01*
X160478Y90223D01*
X160393Y90184D01*
X160309Y90142D01*
X160227Y90095D01*
X160148Y90046D01*
X160070Y89993D01*
X159995Y89937D01*
X159922Y89878D01*
X159851Y89816D01*
X159784Y89751D01*
X159719Y89683D01*
X159657Y89613D01*
X159598Y89540D01*
X159542Y89464D01*
X159489Y89387D01*
X159440Y89307D01*
X159394Y89225D01*
X159352Y89141D01*
X159313Y89056D01*
X159277Y88969D01*
X159246Y88881D01*
X159218Y88791D01*
X159194Y88700D01*
X159174Y88609D01*
X159157Y88516D01*
X159145Y88423D01*
X159136Y88330D01*
X159132Y88236D01*
X159131Y88142D01*
X159131Y88143D02*
X159141Y87797D01*
X159158Y87453D01*
X159183Y87108D01*
X159216Y86765D01*
X159258Y86422D01*
X159308Y86080D01*
X159365Y85740D01*
X159431Y85401D01*
X159505Y85063D01*
X159587Y84728D01*
X159676Y84395D01*
X159774Y84063D01*
X159879Y83735D01*
X159992Y83408D01*
X162574Y96292D02*
X166017Y96292D01*
X166133Y96294D01*
X166249Y96300D01*
X166365Y96310D01*
X166481Y96323D01*
X166596Y96341D01*
X166710Y96362D01*
X166824Y96388D01*
X166936Y96417D01*
X167048Y96450D01*
X167158Y96487D01*
X167267Y96527D01*
X167375Y96571D01*
X167481Y96619D01*
X167585Y96670D01*
X167688Y96725D01*
X167789Y96783D01*
X167887Y96844D01*
X167984Y96909D01*
X168078Y96977D01*
X168170Y97048D01*
X168260Y97123D01*
X168347Y97200D01*
X168431Y97280D01*
X168512Y97363D01*
X168591Y97449D01*
X168667Y97537D01*
X168740Y97628D01*
X168809Y97721D01*
X168876Y97816D01*
X168939Y97914D01*
X168999Y98013D01*
X169055Y98115D01*
X169108Y98219D01*
X169158Y98324D01*
X169203Y98431D01*
X169246Y98539D01*
X169284Y98649D01*
X169319Y98760D01*
X169350Y98872D01*
X169377Y98985D01*
X169401Y99099D01*
X169420Y99214D01*
X169436Y99329D01*
X169448Y99445D01*
X169456Y99561D01*
X169460Y99677D01*
X169460Y99793D01*
X169456Y99909D01*
X169448Y100025D01*
X169436Y100141D01*
X169420Y100256D01*
X169401Y100371D01*
X169377Y100485D01*
X169350Y100598D01*
X169319Y100710D01*
X169284Y100821D01*
X169246Y100931D01*
X169203Y101039D01*
X169158Y101146D01*
X169108Y101251D01*
X169055Y101355D01*
X168999Y101456D01*
X168939Y101556D01*
X168876Y101654D01*
X168809Y101749D01*
X168740Y101842D01*
X168667Y101933D01*
X168591Y102021D01*
X168512Y102107D01*
X168431Y102190D01*
X168347Y102270D01*
X168260Y102347D01*
X168170Y102422D01*
X168078Y102493D01*
X167984Y102561D01*
X167887Y102626D01*
X167789Y102687D01*
X167688Y102745D01*
X167585Y102800D01*
X167481Y102851D01*
X167375Y102899D01*
X167267Y102943D01*
X167158Y102983D01*
X167048Y103020D01*
X166936Y103053D01*
X166824Y103082D01*
X166710Y103108D01*
X166596Y103129D01*
X166481Y103147D01*
X166365Y103160D01*
X166249Y103170D01*
X166133Y103176D01*
X166017Y103178D01*
X162574Y103178D01*
X162458Y103176D01*
X162342Y103170D01*
X162226Y103160D01*
X162110Y103147D01*
X161995Y103129D01*
X161881Y103108D01*
X161767Y103082D01*
X161655Y103053D01*
X161543Y103020D01*
X161433Y102983D01*
X161324Y102943D01*
X161216Y102899D01*
X161110Y102851D01*
X161006Y102800D01*
X160903Y102745D01*
X160802Y102687D01*
X160704Y102626D01*
X160607Y102561D01*
X160513Y102493D01*
X160421Y102422D01*
X160331Y102347D01*
X160244Y102270D01*
X160160Y102190D01*
X160079Y102107D01*
X160000Y102021D01*
X159924Y101933D01*
X159851Y101842D01*
X159782Y101749D01*
X159715Y101654D01*
X159652Y101556D01*
X159592Y101457D01*
X159536Y101355D01*
X159483Y101251D01*
X159433Y101146D01*
X159388Y101039D01*
X159345Y100931D01*
X159307Y100821D01*
X159272Y100710D01*
X159241Y100598D01*
X159214Y100485D01*
X159190Y100371D01*
X159171Y100256D01*
X159155Y100141D01*
X159143Y100025D01*
X159135Y99909D01*
X159131Y99793D01*
X159131Y99677D01*
X159135Y99561D01*
X159143Y99445D01*
X159155Y99329D01*
X159171Y99214D01*
X159190Y99099D01*
X159214Y98985D01*
X159241Y98872D01*
X159272Y98760D01*
X159307Y98649D01*
X159345Y98539D01*
X159388Y98431D01*
X159433Y98324D01*
X159483Y98219D01*
X159536Y98115D01*
X159592Y98014D01*
X159652Y97914D01*
X159715Y97816D01*
X159782Y97721D01*
X159851Y97628D01*
X159924Y97537D01*
X160000Y97449D01*
X160079Y97363D01*
X160160Y97280D01*
X160244Y97200D01*
X160331Y97123D01*
X160421Y97048D01*
X160513Y96977D01*
X160607Y96909D01*
X160704Y96844D01*
X160802Y96783D01*
X160903Y96725D01*
X161006Y96670D01*
X161110Y96619D01*
X161216Y96571D01*
X161324Y96527D01*
X161433Y96487D01*
X161543Y96450D01*
X161655Y96417D01*
X161767Y96388D01*
X161881Y96362D01*
X161995Y96341D01*
X162110Y96323D01*
X162226Y96310D01*
X162342Y96300D01*
X162458Y96294D01*
X162574Y96292D01*
X159131Y109749D02*
X169460Y109749D01*
X169460Y114914D01*
X167739Y114914D01*
X159131Y122164D02*
X159131Y126467D01*
X159131Y122164D02*
X159133Y122065D01*
X159139Y121966D01*
X159148Y121868D01*
X159161Y121770D01*
X159178Y121672D01*
X159199Y121576D01*
X159223Y121480D01*
X159251Y121385D01*
X159283Y121291D01*
X159318Y121199D01*
X159357Y121108D01*
X159399Y121018D01*
X159445Y120931D01*
X159494Y120845D01*
X159546Y120761D01*
X159601Y120679D01*
X159660Y120599D01*
X159721Y120521D01*
X159785Y120446D01*
X159853Y120374D01*
X159923Y120304D01*
X159995Y120236D01*
X160070Y120172D01*
X160148Y120111D01*
X160228Y120052D01*
X160310Y119997D01*
X160394Y119945D01*
X160480Y119896D01*
X160567Y119850D01*
X160657Y119808D01*
X160748Y119769D01*
X160840Y119734D01*
X160934Y119702D01*
X161029Y119674D01*
X161125Y119650D01*
X161221Y119629D01*
X161319Y119612D01*
X161417Y119599D01*
X161515Y119590D01*
X161614Y119584D01*
X161713Y119582D01*
X161713Y119581D02*
X166017Y119581D01*
X166133Y119583D01*
X166249Y119589D01*
X166365Y119599D01*
X166481Y119612D01*
X166596Y119630D01*
X166710Y119651D01*
X166824Y119677D01*
X166936Y119706D01*
X167048Y119739D01*
X167158Y119776D01*
X167267Y119816D01*
X167375Y119860D01*
X167481Y119908D01*
X167585Y119959D01*
X167688Y120014D01*
X167789Y120072D01*
X167887Y120133D01*
X167984Y120198D01*
X168078Y120266D01*
X168170Y120337D01*
X168260Y120412D01*
X168347Y120489D01*
X168431Y120569D01*
X168512Y120652D01*
X168591Y120738D01*
X168667Y120826D01*
X168740Y120917D01*
X168809Y121010D01*
X168876Y121105D01*
X168939Y121203D01*
X168999Y121302D01*
X169055Y121404D01*
X169108Y121508D01*
X169158Y121613D01*
X169203Y121720D01*
X169246Y121828D01*
X169284Y121938D01*
X169319Y122049D01*
X169350Y122161D01*
X169377Y122274D01*
X169401Y122388D01*
X169420Y122503D01*
X169436Y122618D01*
X169448Y122734D01*
X169456Y122850D01*
X169460Y122966D01*
X169460Y123082D01*
X169456Y123198D01*
X169448Y123314D01*
X169436Y123430D01*
X169420Y123545D01*
X169401Y123660D01*
X169377Y123774D01*
X169350Y123887D01*
X169319Y123999D01*
X169284Y124110D01*
X169246Y124220D01*
X169203Y124328D01*
X169158Y124435D01*
X169108Y124540D01*
X169055Y124644D01*
X168999Y124745D01*
X168939Y124845D01*
X168876Y124943D01*
X168809Y125038D01*
X168740Y125131D01*
X168667Y125222D01*
X168591Y125310D01*
X168512Y125396D01*
X168431Y125479D01*
X168347Y125559D01*
X168260Y125636D01*
X168170Y125711D01*
X168078Y125782D01*
X167984Y125850D01*
X167887Y125915D01*
X167789Y125976D01*
X167688Y126034D01*
X167585Y126089D01*
X167481Y126140D01*
X167375Y126188D01*
X167267Y126232D01*
X167158Y126272D01*
X167048Y126309D01*
X166936Y126342D01*
X166824Y126371D01*
X166710Y126397D01*
X166596Y126418D01*
X166481Y126436D01*
X166365Y126449D01*
X166249Y126459D01*
X166133Y126465D01*
X166017Y126467D01*
X164296Y126467D01*
X164296Y119581D01*
X169460Y139164D02*
X169460Y144329D01*
X174625Y140885D02*
X161713Y140885D01*
X161713Y140886D02*
X161614Y140888D01*
X161515Y140894D01*
X161417Y140903D01*
X161319Y140916D01*
X161221Y140933D01*
X161125Y140954D01*
X161029Y140978D01*
X160934Y141006D01*
X160840Y141038D01*
X160748Y141073D01*
X160657Y141112D01*
X160567Y141154D01*
X160480Y141200D01*
X160394Y141249D01*
X160309Y141301D01*
X160228Y141356D01*
X160148Y141415D01*
X160070Y141476D01*
X159995Y141540D01*
X159923Y141608D01*
X159853Y141678D01*
X159785Y141750D01*
X159721Y141825D01*
X159660Y141903D01*
X159601Y141983D01*
X159546Y142065D01*
X159494Y142149D01*
X159445Y142235D01*
X159399Y142322D01*
X159357Y142412D01*
X159318Y142503D01*
X159283Y142595D01*
X159251Y142689D01*
X159223Y142784D01*
X159199Y142880D01*
X159178Y142976D01*
X159161Y143074D01*
X159148Y143172D01*
X159139Y143270D01*
X159133Y143369D01*
X159131Y143468D01*
X159131Y144329D01*
X159131Y152391D02*
X159131Y156694D01*
X159131Y152391D02*
X159133Y152292D01*
X159139Y152193D01*
X159148Y152095D01*
X159161Y151997D01*
X159178Y151899D01*
X159199Y151803D01*
X159223Y151707D01*
X159251Y151612D01*
X159283Y151518D01*
X159318Y151426D01*
X159357Y151335D01*
X159399Y151245D01*
X159445Y151158D01*
X159494Y151072D01*
X159546Y150988D01*
X159601Y150906D01*
X159660Y150826D01*
X159721Y150748D01*
X159785Y150673D01*
X159853Y150601D01*
X159923Y150531D01*
X159995Y150463D01*
X160070Y150399D01*
X160148Y150338D01*
X160228Y150279D01*
X160310Y150224D01*
X160394Y150172D01*
X160480Y150123D01*
X160567Y150077D01*
X160657Y150035D01*
X160748Y149996D01*
X160840Y149961D01*
X160934Y149929D01*
X161029Y149901D01*
X161125Y149877D01*
X161221Y149856D01*
X161319Y149839D01*
X161417Y149826D01*
X161515Y149817D01*
X161614Y149811D01*
X161713Y149809D01*
X161713Y149808D02*
X166017Y149808D01*
X166133Y149810D01*
X166249Y149816D01*
X166365Y149826D01*
X166481Y149839D01*
X166596Y149857D01*
X166710Y149878D01*
X166824Y149904D01*
X166936Y149933D01*
X167048Y149966D01*
X167158Y150003D01*
X167267Y150043D01*
X167375Y150087D01*
X167481Y150135D01*
X167585Y150186D01*
X167688Y150241D01*
X167789Y150299D01*
X167887Y150360D01*
X167984Y150425D01*
X168078Y150493D01*
X168170Y150564D01*
X168260Y150639D01*
X168347Y150716D01*
X168431Y150796D01*
X168512Y150879D01*
X168591Y150965D01*
X168667Y151053D01*
X168740Y151144D01*
X168809Y151237D01*
X168876Y151332D01*
X168939Y151430D01*
X168999Y151529D01*
X169055Y151631D01*
X169108Y151735D01*
X169158Y151840D01*
X169203Y151947D01*
X169246Y152055D01*
X169284Y152165D01*
X169319Y152276D01*
X169350Y152388D01*
X169377Y152501D01*
X169401Y152615D01*
X169420Y152730D01*
X169436Y152845D01*
X169448Y152961D01*
X169456Y153077D01*
X169460Y153193D01*
X169460Y153309D01*
X169456Y153425D01*
X169448Y153541D01*
X169436Y153657D01*
X169420Y153772D01*
X169401Y153887D01*
X169377Y154001D01*
X169350Y154114D01*
X169319Y154226D01*
X169284Y154337D01*
X169246Y154447D01*
X169203Y154555D01*
X169158Y154662D01*
X169108Y154767D01*
X169055Y154871D01*
X168999Y154972D01*
X168939Y155072D01*
X168876Y155170D01*
X168809Y155265D01*
X168740Y155358D01*
X168667Y155449D01*
X168591Y155537D01*
X168512Y155623D01*
X168431Y155706D01*
X168347Y155786D01*
X168260Y155863D01*
X168170Y155938D01*
X168078Y156009D01*
X167984Y156077D01*
X167887Y156142D01*
X167789Y156203D01*
X167688Y156261D01*
X167585Y156316D01*
X167481Y156367D01*
X167375Y156415D01*
X167267Y156459D01*
X167158Y156499D01*
X167048Y156536D01*
X166936Y156569D01*
X166824Y156598D01*
X166710Y156624D01*
X166596Y156645D01*
X166481Y156663D01*
X166365Y156676D01*
X166249Y156686D01*
X166133Y156692D01*
X166017Y156694D01*
X164296Y156694D01*
X164296Y149808D01*
X169460Y163448D02*
X159131Y163448D01*
X169460Y163448D02*
X169460Y171195D01*
X169458Y171294D01*
X169452Y171393D01*
X169443Y171491D01*
X169430Y171589D01*
X169413Y171687D01*
X169392Y171783D01*
X169368Y171879D01*
X169340Y171974D01*
X169308Y172068D01*
X169273Y172160D01*
X169234Y172251D01*
X169192Y172341D01*
X169146Y172428D01*
X169097Y172514D01*
X169045Y172598D01*
X168990Y172680D01*
X168931Y172760D01*
X168870Y172838D01*
X168806Y172913D01*
X168738Y172985D01*
X168668Y173055D01*
X168596Y173123D01*
X168521Y173187D01*
X168443Y173248D01*
X168363Y173307D01*
X168281Y173362D01*
X168197Y173414D01*
X168111Y173463D01*
X168024Y173509D01*
X167934Y173551D01*
X167843Y173590D01*
X167751Y173625D01*
X167657Y173657D01*
X167562Y173685D01*
X167466Y173709D01*
X167370Y173730D01*
X167272Y173747D01*
X167174Y173760D01*
X167076Y173769D01*
X166977Y173775D01*
X166878Y173777D01*
X159131Y173777D01*
X159131Y168613D02*
X169460Y168613D01*
X169460Y181095D02*
X153966Y181095D01*
X169460Y181095D02*
X169460Y185399D01*
X169458Y185498D01*
X169452Y185597D01*
X169443Y185695D01*
X169430Y185793D01*
X169413Y185891D01*
X169392Y185987D01*
X169368Y186083D01*
X169340Y186178D01*
X169308Y186272D01*
X169273Y186364D01*
X169234Y186455D01*
X169192Y186545D01*
X169146Y186632D01*
X169097Y186718D01*
X169045Y186802D01*
X168990Y186884D01*
X168931Y186964D01*
X168870Y187042D01*
X168806Y187117D01*
X168738Y187189D01*
X168668Y187259D01*
X168596Y187327D01*
X168521Y187391D01*
X168443Y187452D01*
X168363Y187511D01*
X168281Y187566D01*
X168197Y187618D01*
X168111Y187667D01*
X168024Y187713D01*
X167934Y187755D01*
X167843Y187794D01*
X167751Y187829D01*
X167657Y187861D01*
X167562Y187889D01*
X167466Y187913D01*
X167370Y187934D01*
X167272Y187951D01*
X167174Y187964D01*
X167076Y187973D01*
X166977Y187979D01*
X166878Y187981D01*
X161713Y187981D01*
X161614Y187979D01*
X161515Y187973D01*
X161417Y187964D01*
X161319Y187951D01*
X161221Y187934D01*
X161125Y187913D01*
X161029Y187889D01*
X160934Y187861D01*
X160840Y187829D01*
X160748Y187794D01*
X160657Y187755D01*
X160567Y187713D01*
X160480Y187667D01*
X160394Y187618D01*
X160310Y187566D01*
X160228Y187511D01*
X160148Y187452D01*
X160070Y187391D01*
X159995Y187327D01*
X159923Y187259D01*
X159853Y187189D01*
X159785Y187117D01*
X159721Y187042D01*
X159660Y186964D01*
X159601Y186884D01*
X159546Y186802D01*
X159494Y186718D01*
X159445Y186632D01*
X159399Y186545D01*
X159357Y186455D01*
X159318Y186364D01*
X159283Y186272D01*
X159251Y186178D01*
X159223Y186083D01*
X159199Y185987D01*
X159178Y185891D01*
X159161Y185793D01*
X159148Y185695D01*
X159139Y185597D01*
X159133Y185498D01*
X159131Y185399D01*
X159131Y181095D01*
X159131Y196492D02*
X159131Y200796D01*
X159131Y196492D02*
X159133Y196393D01*
X159139Y196294D01*
X159148Y196196D01*
X159161Y196098D01*
X159178Y196000D01*
X159199Y195904D01*
X159223Y195808D01*
X159251Y195713D01*
X159283Y195619D01*
X159318Y195527D01*
X159357Y195436D01*
X159399Y195346D01*
X159445Y195259D01*
X159494Y195173D01*
X159546Y195089D01*
X159601Y195007D01*
X159660Y194927D01*
X159721Y194849D01*
X159785Y194774D01*
X159853Y194702D01*
X159923Y194632D01*
X159995Y194564D01*
X160070Y194500D01*
X160148Y194439D01*
X160228Y194380D01*
X160310Y194325D01*
X160394Y194273D01*
X160480Y194224D01*
X160567Y194178D01*
X160657Y194136D01*
X160748Y194097D01*
X160840Y194062D01*
X160934Y194030D01*
X161029Y194002D01*
X161125Y193978D01*
X161221Y193957D01*
X161319Y193940D01*
X161417Y193927D01*
X161515Y193918D01*
X161614Y193912D01*
X161713Y193910D01*
X166017Y193910D01*
X166133Y193912D01*
X166249Y193918D01*
X166365Y193928D01*
X166481Y193941D01*
X166596Y193959D01*
X166710Y193980D01*
X166824Y194006D01*
X166936Y194035D01*
X167048Y194068D01*
X167158Y194105D01*
X167267Y194145D01*
X167375Y194189D01*
X167481Y194237D01*
X167585Y194288D01*
X167688Y194343D01*
X167789Y194401D01*
X167887Y194462D01*
X167984Y194527D01*
X168078Y194595D01*
X168170Y194666D01*
X168260Y194741D01*
X168347Y194818D01*
X168431Y194898D01*
X168512Y194981D01*
X168591Y195067D01*
X168667Y195155D01*
X168740Y195246D01*
X168809Y195339D01*
X168876Y195434D01*
X168939Y195532D01*
X168999Y195631D01*
X169055Y195733D01*
X169108Y195837D01*
X169158Y195942D01*
X169203Y196049D01*
X169246Y196157D01*
X169284Y196267D01*
X169319Y196378D01*
X169350Y196490D01*
X169377Y196603D01*
X169401Y196717D01*
X169420Y196832D01*
X169436Y196947D01*
X169448Y197063D01*
X169456Y197179D01*
X169460Y197295D01*
X169460Y197411D01*
X169456Y197527D01*
X169448Y197643D01*
X169436Y197759D01*
X169420Y197874D01*
X169401Y197989D01*
X169377Y198103D01*
X169350Y198216D01*
X169319Y198328D01*
X169284Y198439D01*
X169246Y198549D01*
X169203Y198657D01*
X169158Y198764D01*
X169108Y198869D01*
X169055Y198973D01*
X168999Y199074D01*
X168939Y199174D01*
X168876Y199272D01*
X168809Y199367D01*
X168740Y199460D01*
X168667Y199551D01*
X168591Y199639D01*
X168512Y199725D01*
X168431Y199808D01*
X168347Y199888D01*
X168260Y199965D01*
X168170Y200040D01*
X168078Y200111D01*
X167984Y200179D01*
X167887Y200244D01*
X167789Y200305D01*
X167688Y200363D01*
X167585Y200418D01*
X167481Y200469D01*
X167375Y200517D01*
X167267Y200561D01*
X167158Y200601D01*
X167048Y200638D01*
X166936Y200671D01*
X166824Y200700D01*
X166710Y200726D01*
X166596Y200747D01*
X166481Y200765D01*
X166365Y200778D01*
X166249Y200788D01*
X166133Y200794D01*
X166017Y200796D01*
X164296Y200796D01*
X164296Y193910D01*
X169460Y207368D02*
X159131Y207368D01*
X169460Y207368D02*
X169460Y212532D01*
X167739Y212532D01*
X165156Y220144D02*
X165156Y224018D01*
X165157Y220144D02*
X165155Y220035D01*
X165149Y219927D01*
X165139Y219818D01*
X165126Y219710D01*
X165108Y219603D01*
X165087Y219496D01*
X165061Y219390D01*
X165032Y219286D01*
X164999Y219182D01*
X164963Y219079D01*
X164922Y218978D01*
X164879Y218879D01*
X164831Y218781D01*
X164780Y218685D01*
X164726Y218591D01*
X164668Y218498D01*
X164607Y218408D01*
X164543Y218321D01*
X164475Y218235D01*
X164405Y218152D01*
X164331Y218072D01*
X164255Y217994D01*
X164176Y217920D01*
X164095Y217848D01*
X164010Y217779D01*
X163924Y217713D01*
X163835Y217650D01*
X163744Y217591D01*
X163650Y217535D01*
X163555Y217482D01*
X163458Y217433D01*
X163360Y217387D01*
X163259Y217345D01*
X163157Y217307D01*
X163054Y217272D01*
X162950Y217241D01*
X162845Y217214D01*
X162738Y217190D01*
X162631Y217171D01*
X162524Y217155D01*
X162416Y217143D01*
X162307Y217135D01*
X162198Y217131D01*
X162090Y217131D01*
X161981Y217135D01*
X161872Y217143D01*
X161764Y217155D01*
X161657Y217171D01*
X161550Y217190D01*
X161443Y217214D01*
X161338Y217241D01*
X161234Y217272D01*
X161131Y217307D01*
X161029Y217345D01*
X160928Y217387D01*
X160830Y217433D01*
X160733Y217482D01*
X160638Y217535D01*
X160544Y217591D01*
X160453Y217650D01*
X160364Y217713D01*
X160278Y217779D01*
X160193Y217848D01*
X160112Y217920D01*
X160033Y217994D01*
X159957Y218072D01*
X159883Y218152D01*
X159813Y218235D01*
X159745Y218321D01*
X159681Y218408D01*
X159620Y218498D01*
X159562Y218591D01*
X159508Y218685D01*
X159457Y218781D01*
X159409Y218879D01*
X159366Y218978D01*
X159325Y219079D01*
X159289Y219182D01*
X159256Y219286D01*
X159227Y219390D01*
X159201Y219496D01*
X159180Y219603D01*
X159162Y219710D01*
X159149Y219818D01*
X159139Y219927D01*
X159133Y220035D01*
X159131Y220144D01*
X159131Y224018D01*
X166878Y224018D01*
X166878Y224017D02*
X166977Y224015D01*
X167076Y224009D01*
X167174Y224000D01*
X167272Y223987D01*
X167370Y223970D01*
X167466Y223949D01*
X167562Y223925D01*
X167657Y223897D01*
X167751Y223865D01*
X167843Y223830D01*
X167934Y223791D01*
X168024Y223749D01*
X168111Y223703D01*
X168197Y223654D01*
X168281Y223602D01*
X168363Y223547D01*
X168443Y223488D01*
X168521Y223427D01*
X168596Y223363D01*
X168668Y223295D01*
X168738Y223225D01*
X168806Y223153D01*
X168870Y223078D01*
X168931Y223000D01*
X168990Y222920D01*
X169045Y222838D01*
X169097Y222754D01*
X169146Y222668D01*
X169192Y222581D01*
X169234Y222491D01*
X169273Y222400D01*
X169308Y222308D01*
X169340Y222214D01*
X169368Y222119D01*
X169392Y222023D01*
X169413Y221927D01*
X169430Y221829D01*
X169443Y221731D01*
X169452Y221633D01*
X169458Y221534D01*
X169460Y221435D01*
X169460Y217992D01*
X169460Y229350D02*
X169460Y234514D01*
X174625Y231071D02*
X161713Y231071D01*
X161614Y231073D01*
X161515Y231079D01*
X161417Y231088D01*
X161319Y231101D01*
X161221Y231118D01*
X161125Y231139D01*
X161029Y231163D01*
X160934Y231191D01*
X160840Y231223D01*
X160748Y231258D01*
X160657Y231297D01*
X160567Y231339D01*
X160480Y231385D01*
X160394Y231434D01*
X160309Y231486D01*
X160228Y231541D01*
X160148Y231600D01*
X160070Y231661D01*
X159995Y231725D01*
X159923Y231793D01*
X159853Y231863D01*
X159785Y231935D01*
X159721Y232010D01*
X159660Y232088D01*
X159601Y232168D01*
X159546Y232250D01*
X159494Y232334D01*
X159445Y232420D01*
X159399Y232507D01*
X159357Y232597D01*
X159318Y232688D01*
X159283Y232780D01*
X159251Y232874D01*
X159223Y232969D01*
X159199Y233065D01*
X159178Y233161D01*
X159161Y233259D01*
X159148Y233357D01*
X159139Y233455D01*
X159133Y233554D01*
X159131Y233653D01*
X159131Y234514D01*
X161713Y240489D02*
X169460Y240489D01*
X161713Y240490D02*
X161614Y240492D01*
X161515Y240498D01*
X161417Y240507D01*
X161319Y240520D01*
X161221Y240537D01*
X161125Y240558D01*
X161029Y240582D01*
X160934Y240610D01*
X160840Y240642D01*
X160748Y240677D01*
X160657Y240716D01*
X160567Y240758D01*
X160480Y240804D01*
X160394Y240853D01*
X160310Y240905D01*
X160228Y240960D01*
X160148Y241019D01*
X160070Y241080D01*
X159995Y241144D01*
X159923Y241212D01*
X159853Y241282D01*
X159785Y241354D01*
X159721Y241429D01*
X159660Y241507D01*
X159601Y241587D01*
X159546Y241669D01*
X159494Y241753D01*
X159445Y241839D01*
X159399Y241926D01*
X159357Y242016D01*
X159318Y242107D01*
X159283Y242199D01*
X159251Y242293D01*
X159223Y242388D01*
X159199Y242484D01*
X159178Y242580D01*
X159161Y242678D01*
X159148Y242776D01*
X159139Y242874D01*
X159133Y242973D01*
X159131Y243072D01*
X159131Y247376D01*
X169460Y247376D01*
X169460Y254443D02*
X159131Y254443D01*
X169460Y254443D02*
X169460Y259607D01*
X167739Y259607D01*
X165156Y267219D02*
X165156Y271093D01*
X165157Y267219D02*
X165155Y267110D01*
X165149Y267002D01*
X165139Y266893D01*
X165126Y266785D01*
X165108Y266678D01*
X165087Y266571D01*
X165061Y266465D01*
X165032Y266361D01*
X164999Y266257D01*
X164963Y266154D01*
X164922Y266053D01*
X164879Y265954D01*
X164831Y265856D01*
X164780Y265760D01*
X164726Y265666D01*
X164668Y265573D01*
X164607Y265483D01*
X164543Y265396D01*
X164475Y265310D01*
X164405Y265227D01*
X164331Y265147D01*
X164255Y265069D01*
X164176Y264995D01*
X164095Y264923D01*
X164010Y264854D01*
X163924Y264788D01*
X163835Y264725D01*
X163744Y264666D01*
X163650Y264610D01*
X163555Y264557D01*
X163458Y264508D01*
X163360Y264462D01*
X163259Y264420D01*
X163157Y264382D01*
X163054Y264347D01*
X162950Y264316D01*
X162845Y264289D01*
X162738Y264265D01*
X162631Y264246D01*
X162524Y264230D01*
X162416Y264218D01*
X162307Y264210D01*
X162198Y264206D01*
X162090Y264206D01*
X161981Y264210D01*
X161872Y264218D01*
X161764Y264230D01*
X161657Y264246D01*
X161550Y264265D01*
X161443Y264289D01*
X161338Y264316D01*
X161234Y264347D01*
X161131Y264382D01*
X161029Y264420D01*
X160928Y264462D01*
X160830Y264508D01*
X160733Y264557D01*
X160638Y264610D01*
X160544Y264666D01*
X160453Y264725D01*
X160364Y264788D01*
X160278Y264854D01*
X160193Y264923D01*
X160112Y264995D01*
X160033Y265069D01*
X159957Y265147D01*
X159883Y265227D01*
X159813Y265310D01*
X159745Y265396D01*
X159681Y265483D01*
X159620Y265573D01*
X159562Y265666D01*
X159508Y265760D01*
X159457Y265856D01*
X159409Y265954D01*
X159366Y266053D01*
X159325Y266154D01*
X159289Y266257D01*
X159256Y266361D01*
X159227Y266465D01*
X159201Y266571D01*
X159180Y266678D01*
X159162Y266785D01*
X159149Y266893D01*
X159139Y267002D01*
X159133Y267110D01*
X159131Y267219D01*
X159131Y271093D01*
X166878Y271093D01*
X166878Y271092D02*
X166977Y271090D01*
X167076Y271084D01*
X167174Y271075D01*
X167272Y271062D01*
X167370Y271045D01*
X167466Y271024D01*
X167562Y271000D01*
X167657Y270972D01*
X167751Y270940D01*
X167843Y270905D01*
X167934Y270866D01*
X168024Y270824D01*
X168111Y270778D01*
X168197Y270729D01*
X168281Y270677D01*
X168363Y270622D01*
X168443Y270563D01*
X168521Y270502D01*
X168596Y270438D01*
X168668Y270370D01*
X168738Y270300D01*
X168806Y270228D01*
X168870Y270153D01*
X168931Y270075D01*
X168990Y269995D01*
X169045Y269913D01*
X169097Y269829D01*
X169146Y269743D01*
X169192Y269656D01*
X169234Y269566D01*
X169273Y269475D01*
X169308Y269383D01*
X169340Y269289D01*
X169368Y269194D01*
X169392Y269098D01*
X169413Y269002D01*
X169430Y268904D01*
X169443Y268806D01*
X169452Y268708D01*
X169458Y268609D01*
X169460Y268510D01*
X169460Y265067D01*
X169460Y285087D02*
X159131Y288530D01*
X169460Y291973D01*
X171182Y297605D02*
X174625Y301909D01*
X159131Y301909D01*
X159131Y297605D02*
X159131Y306213D01*
X159131Y311885D02*
X159992Y311885D01*
X159992Y312746D01*
X159131Y312746D01*
X159131Y311885D01*
X166878Y318417D02*
X167183Y318421D01*
X167487Y318432D01*
X167792Y318450D01*
X168095Y318475D01*
X168398Y318508D01*
X168701Y318548D01*
X169002Y318595D01*
X169302Y318649D01*
X169600Y318711D01*
X169897Y318779D01*
X170193Y318855D01*
X170486Y318937D01*
X170777Y319027D01*
X171066Y319124D01*
X171353Y319227D01*
X171637Y319337D01*
X171919Y319454D01*
X172197Y319578D01*
X172473Y319708D01*
X172576Y319746D01*
X172678Y319786D01*
X172778Y319831D01*
X172877Y319879D01*
X172974Y319930D01*
X173069Y319984D01*
X173163Y320042D01*
X173254Y320103D01*
X173343Y320167D01*
X173430Y320234D01*
X173514Y320304D01*
X173597Y320377D01*
X173676Y320453D01*
X173753Y320531D01*
X173827Y320612D01*
X173898Y320696D01*
X173966Y320782D01*
X174032Y320870D01*
X174094Y320960D01*
X174153Y321053D01*
X174209Y321147D01*
X174262Y321243D01*
X174311Y321341D01*
X174357Y321441D01*
X174399Y321542D01*
X174438Y321645D01*
X174473Y321749D01*
X174505Y321854D01*
X174533Y321960D01*
X174557Y322067D01*
X174578Y322175D01*
X174595Y322283D01*
X174608Y322392D01*
X174617Y322502D01*
X174623Y322611D01*
X174625Y322721D01*
X174623Y322831D01*
X174617Y322940D01*
X174608Y323050D01*
X174595Y323159D01*
X174578Y323267D01*
X174557Y323375D01*
X174533Y323482D01*
X174505Y323588D01*
X174473Y323693D01*
X174438Y323797D01*
X174399Y323900D01*
X174357Y324001D01*
X174311Y324101D01*
X174262Y324199D01*
X174209Y324295D01*
X174153Y324389D01*
X174094Y324482D01*
X174032Y324572D01*
X173966Y324660D01*
X173898Y324746D01*
X173827Y324830D01*
X173753Y324911D01*
X173676Y324989D01*
X173596Y325065D01*
X173514Y325138D01*
X173430Y325208D01*
X173343Y325275D01*
X173254Y325339D01*
X173163Y325400D01*
X173069Y325458D01*
X172974Y325512D01*
X172877Y325563D01*
X172778Y325611D01*
X172678Y325656D01*
X172576Y325696D01*
X172473Y325734D01*
X172197Y325864D01*
X171919Y325988D01*
X171637Y326105D01*
X171353Y326215D01*
X171066Y326318D01*
X170777Y326415D01*
X170486Y326505D01*
X170193Y326587D01*
X169897Y326663D01*
X169600Y326731D01*
X169302Y326793D01*
X169002Y326847D01*
X168701Y326894D01*
X168398Y326934D01*
X168095Y326967D01*
X167792Y326992D01*
X167487Y327010D01*
X167183Y327021D01*
X166878Y327025D01*
X166878Y318418D02*
X166573Y318422D01*
X166269Y318433D01*
X165964Y318451D01*
X165661Y318476D01*
X165358Y318509D01*
X165055Y318549D01*
X164754Y318596D01*
X164454Y318650D01*
X164156Y318712D01*
X163859Y318780D01*
X163563Y318856D01*
X163270Y318938D01*
X162979Y319028D01*
X162690Y319125D01*
X162403Y319228D01*
X162119Y319338D01*
X161837Y319455D01*
X161559Y319579D01*
X161283Y319709D01*
X161283Y319708D02*
X161180Y319746D01*
X161078Y319786D01*
X160978Y319831D01*
X160879Y319879D01*
X160782Y319930D01*
X160687Y319984D01*
X160593Y320042D01*
X160502Y320103D01*
X160413Y320167D01*
X160326Y320234D01*
X160241Y320304D01*
X160159Y320377D01*
X160080Y320453D01*
X160003Y320531D01*
X159929Y320612D01*
X159858Y320696D01*
X159790Y320782D01*
X159724Y320870D01*
X159662Y320960D01*
X159603Y321053D01*
X159547Y321147D01*
X159494Y321243D01*
X159445Y321342D01*
X159399Y321441D01*
X159357Y321542D01*
X159318Y321645D01*
X159283Y321749D01*
X159251Y321854D01*
X159223Y321960D01*
X159199Y322067D01*
X159178Y322175D01*
X159161Y322283D01*
X159148Y322392D01*
X159139Y322502D01*
X159133Y322611D01*
X159131Y322721D01*
X161283Y325734D02*
X161559Y325864D01*
X161837Y325988D01*
X162119Y326105D01*
X162403Y326215D01*
X162690Y326318D01*
X162979Y326415D01*
X163270Y326505D01*
X163563Y326587D01*
X163859Y326663D01*
X164156Y326731D01*
X164454Y326793D01*
X164754Y326847D01*
X165055Y326894D01*
X165358Y326934D01*
X165661Y326967D01*
X165964Y326992D01*
X166269Y327010D01*
X166573Y327021D01*
X166878Y327025D01*
X161283Y325734D02*
X161180Y325696D01*
X161078Y325656D01*
X160978Y325611D01*
X160879Y325563D01*
X160782Y325512D01*
X160687Y325458D01*
X160593Y325400D01*
X160502Y325339D01*
X160413Y325275D01*
X160326Y325208D01*
X160242Y325138D01*
X160159Y325065D01*
X160080Y324989D01*
X160003Y324911D01*
X159929Y324830D01*
X159858Y324746D01*
X159790Y324660D01*
X159724Y324572D01*
X159662Y324482D01*
X159603Y324389D01*
X159547Y324295D01*
X159494Y324199D01*
X159445Y324101D01*
X159399Y324001D01*
X159357Y323900D01*
X159318Y323797D01*
X159283Y323693D01*
X159251Y323588D01*
X159223Y323482D01*
X159199Y323375D01*
X159178Y323267D01*
X159161Y323159D01*
X159148Y323050D01*
X159139Y322940D01*
X159133Y322831D01*
X159131Y322721D01*
X162574Y319278D02*
X171182Y326164D01*
D12*
X118999Y261747D02*
X118999Y254381D01*
X118999Y258473D02*
X114907Y258473D01*
X114907Y261747D02*
X114907Y254381D01*
X111180Y254381D02*
X111180Y261747D01*
X111180Y254381D02*
X107907Y254381D01*
X104739Y254381D02*
X104739Y261747D01*
X100646Y261747D02*
X104739Y257246D01*
X103102Y258882D02*
X100646Y254381D01*
X97707Y257246D02*
X92796Y257246D01*
X89133Y254381D02*
X89133Y261747D01*
X87087Y261747D01*
X86998Y261745D01*
X86909Y261739D01*
X86820Y261729D01*
X86732Y261716D01*
X86644Y261699D01*
X86557Y261677D01*
X86472Y261652D01*
X86387Y261624D01*
X86304Y261591D01*
X86222Y261555D01*
X86142Y261516D01*
X86064Y261473D01*
X85988Y261427D01*
X85913Y261377D01*
X85841Y261324D01*
X85772Y261268D01*
X85705Y261209D01*
X85640Y261148D01*
X85579Y261083D01*
X85520Y261016D01*
X85464Y260947D01*
X85411Y260875D01*
X85361Y260800D01*
X85315Y260724D01*
X85272Y260646D01*
X85233Y260566D01*
X85197Y260484D01*
X85164Y260401D01*
X85136Y260316D01*
X85111Y260231D01*
X85089Y260144D01*
X85072Y260056D01*
X85059Y259968D01*
X85049Y259879D01*
X85043Y259790D01*
X85041Y259701D01*
X85043Y259612D01*
X85049Y259523D01*
X85059Y259434D01*
X85072Y259346D01*
X85089Y259258D01*
X85111Y259171D01*
X85136Y259086D01*
X85164Y259001D01*
X85197Y258918D01*
X85233Y258836D01*
X85272Y258756D01*
X85315Y258678D01*
X85361Y258602D01*
X85411Y258527D01*
X85464Y258455D01*
X85520Y258386D01*
X85579Y258319D01*
X85640Y258254D01*
X85705Y258193D01*
X85772Y258134D01*
X85841Y258078D01*
X85913Y258025D01*
X85988Y257975D01*
X86064Y257929D01*
X86142Y257886D01*
X86222Y257847D01*
X86304Y257811D01*
X86387Y257778D01*
X86472Y257750D01*
X86557Y257725D01*
X86644Y257703D01*
X86732Y257686D01*
X86820Y257673D01*
X86909Y257663D01*
X86998Y257657D01*
X87087Y257655D01*
X89133Y257655D01*
X81857Y254381D02*
X81857Y261747D01*
X79402Y257655D01*
X76946Y261747D01*
X76946Y254381D01*
X73401Y258064D02*
X73399Y258217D01*
X73393Y258370D01*
X73384Y258522D01*
X73370Y258675D01*
X73353Y258827D01*
X73332Y258978D01*
X73307Y259129D01*
X73278Y259279D01*
X73246Y259429D01*
X73209Y259577D01*
X73169Y259725D01*
X73126Y259872D01*
X73078Y260017D01*
X73027Y260161D01*
X72973Y260304D01*
X72914Y260446D01*
X72853Y260585D01*
X72787Y260724D01*
X72761Y260794D01*
X72731Y260863D01*
X72699Y260931D01*
X72662Y260997D01*
X72623Y261061D01*
X72580Y261123D01*
X72535Y261182D01*
X72486Y261240D01*
X72435Y261294D01*
X72381Y261347D01*
X72324Y261396D01*
X72265Y261443D01*
X72204Y261486D01*
X72141Y261527D01*
X72076Y261564D01*
X72009Y261599D01*
X71940Y261629D01*
X71870Y261657D01*
X71799Y261680D01*
X71727Y261701D01*
X71654Y261717D01*
X71580Y261730D01*
X71505Y261740D01*
X71430Y261745D01*
X71355Y261747D01*
X71280Y261745D01*
X71205Y261740D01*
X71130Y261730D01*
X71056Y261717D01*
X70983Y261701D01*
X70911Y261680D01*
X70840Y261657D01*
X70770Y261629D01*
X70701Y261599D01*
X70634Y261564D01*
X70569Y261527D01*
X70506Y261486D01*
X70445Y261443D01*
X70386Y261396D01*
X70329Y261347D01*
X70275Y261294D01*
X70224Y261240D01*
X70176Y261182D01*
X70130Y261123D01*
X70087Y261061D01*
X70048Y260997D01*
X70012Y260931D01*
X69979Y260864D01*
X69949Y260794D01*
X69923Y260724D01*
X69858Y260586D01*
X69796Y260446D01*
X69738Y260304D01*
X69683Y260161D01*
X69632Y260017D01*
X69584Y259872D01*
X69541Y259725D01*
X69501Y259578D01*
X69464Y259429D01*
X69432Y259279D01*
X69403Y259129D01*
X69378Y258978D01*
X69357Y258827D01*
X69340Y258675D01*
X69326Y258522D01*
X69317Y258370D01*
X69311Y258217D01*
X69309Y258064D01*
X73402Y258064D02*
X73400Y257911D01*
X73394Y257758D01*
X73385Y257605D01*
X73371Y257453D01*
X73354Y257301D01*
X73333Y257150D01*
X73308Y256999D01*
X73279Y256848D01*
X73247Y256699D01*
X73210Y256550D01*
X73170Y256403D01*
X73127Y256256D01*
X73079Y256111D01*
X73028Y255966D01*
X72973Y255824D01*
X72915Y255682D01*
X72853Y255542D01*
X72788Y255404D01*
X72787Y255404D02*
X72761Y255334D01*
X72731Y255264D01*
X72699Y255197D01*
X72662Y255131D01*
X72623Y255067D01*
X72580Y255005D01*
X72534Y254946D01*
X72486Y254888D01*
X72435Y254834D01*
X72381Y254781D01*
X72324Y254732D01*
X72265Y254685D01*
X72204Y254642D01*
X72141Y254601D01*
X72076Y254564D01*
X72009Y254529D01*
X71940Y254499D01*
X71870Y254471D01*
X71799Y254448D01*
X71727Y254427D01*
X71654Y254411D01*
X71580Y254398D01*
X71505Y254388D01*
X71430Y254383D01*
X71355Y254381D01*
X69923Y255404D02*
X69858Y255542D01*
X69796Y255682D01*
X69738Y255824D01*
X69683Y255967D01*
X69632Y256111D01*
X69584Y256256D01*
X69541Y256403D01*
X69501Y256551D01*
X69464Y256699D01*
X69432Y256849D01*
X69403Y256999D01*
X69378Y257150D01*
X69357Y257301D01*
X69340Y257453D01*
X69326Y257606D01*
X69317Y257758D01*
X69311Y257911D01*
X69309Y258064D01*
X69923Y255404D02*
X69949Y255333D01*
X69979Y255264D01*
X70012Y255197D01*
X70048Y255131D01*
X70087Y255067D01*
X70130Y255005D01*
X70176Y254946D01*
X70224Y254888D01*
X70275Y254834D01*
X70329Y254781D01*
X70386Y254732D01*
X70445Y254685D01*
X70506Y254642D01*
X70569Y254601D01*
X70634Y254564D01*
X70701Y254529D01*
X70770Y254499D01*
X70840Y254471D01*
X70911Y254448D01*
X70983Y254427D01*
X71056Y254411D01*
X71130Y254398D01*
X71205Y254388D01*
X71280Y254383D01*
X71355Y254381D01*
X72992Y256018D02*
X69718Y260110D01*
X66086Y254381D02*
X64040Y254381D01*
X63951Y254383D01*
X63862Y254389D01*
X63773Y254399D01*
X63685Y254412D01*
X63597Y254429D01*
X63510Y254451D01*
X63425Y254476D01*
X63340Y254504D01*
X63257Y254537D01*
X63175Y254573D01*
X63095Y254612D01*
X63017Y254655D01*
X62941Y254701D01*
X62866Y254751D01*
X62794Y254804D01*
X62725Y254860D01*
X62658Y254919D01*
X62593Y254980D01*
X62532Y255045D01*
X62473Y255112D01*
X62417Y255181D01*
X62364Y255253D01*
X62314Y255328D01*
X62268Y255404D01*
X62225Y255482D01*
X62186Y255562D01*
X62150Y255644D01*
X62117Y255727D01*
X62089Y255812D01*
X62064Y255897D01*
X62042Y255984D01*
X62025Y256072D01*
X62012Y256160D01*
X62002Y256249D01*
X61996Y256338D01*
X61994Y256427D01*
X61996Y256516D01*
X62002Y256605D01*
X62012Y256694D01*
X62025Y256782D01*
X62042Y256870D01*
X62064Y256957D01*
X62089Y257042D01*
X62117Y257127D01*
X62150Y257210D01*
X62186Y257292D01*
X62225Y257372D01*
X62268Y257450D01*
X62314Y257526D01*
X62364Y257601D01*
X62417Y257673D01*
X62473Y257742D01*
X62532Y257809D01*
X62593Y257874D01*
X62658Y257935D01*
X62725Y257994D01*
X62794Y258050D01*
X62866Y258103D01*
X62941Y258153D01*
X63017Y258199D01*
X63095Y258242D01*
X63175Y258281D01*
X63257Y258317D01*
X63340Y258350D01*
X63425Y258378D01*
X63510Y258403D01*
X63597Y258425D01*
X63685Y258442D01*
X63773Y258455D01*
X63862Y258465D01*
X63951Y258471D01*
X64040Y258473D01*
X63631Y261747D02*
X66086Y261747D01*
X63631Y261747D02*
X63552Y261745D01*
X63473Y261739D01*
X63394Y261730D01*
X63316Y261717D01*
X63239Y261699D01*
X63163Y261679D01*
X63088Y261654D01*
X63014Y261626D01*
X62941Y261595D01*
X62870Y261559D01*
X62801Y261521D01*
X62734Y261479D01*
X62669Y261434D01*
X62606Y261386D01*
X62545Y261335D01*
X62488Y261281D01*
X62432Y261225D01*
X62380Y261166D01*
X62330Y261104D01*
X62284Y261040D01*
X62240Y260974D01*
X62200Y260906D01*
X62164Y260836D01*
X62130Y260764D01*
X62100Y260690D01*
X62074Y260616D01*
X62051Y260540D01*
X62033Y260463D01*
X62017Y260386D01*
X62006Y260307D01*
X61998Y260229D01*
X61994Y260150D01*
X61994Y260070D01*
X61998Y259991D01*
X62006Y259913D01*
X62017Y259834D01*
X62033Y259757D01*
X62051Y259680D01*
X62074Y259604D01*
X62100Y259530D01*
X62130Y259456D01*
X62164Y259384D01*
X62200Y259314D01*
X62240Y259246D01*
X62284Y259180D01*
X62330Y259116D01*
X62380Y259054D01*
X62432Y258995D01*
X62488Y258939D01*
X62545Y258885D01*
X62606Y258834D01*
X62669Y258786D01*
X62734Y258741D01*
X62801Y258699D01*
X62870Y258661D01*
X62941Y258625D01*
X63014Y258594D01*
X63088Y258566D01*
X63163Y258541D01*
X63239Y258521D01*
X63316Y258503D01*
X63394Y258490D01*
X63473Y258481D01*
X63552Y258475D01*
X63631Y258473D01*
X65267Y258473D01*
D11*
X-6020Y385900D02*
X-6020Y45900D01*
X-6020Y385900D02*
X193980Y385900D01*
X193980Y45900D01*
X-6020Y45900D01*
D13*
X119980Y31398D02*
X119982Y31461D01*
X119988Y31523D01*
X119998Y31585D01*
X120011Y31647D01*
X120029Y31707D01*
X120050Y31766D01*
X120075Y31824D01*
X120104Y31880D01*
X120136Y31934D01*
X120171Y31986D01*
X120209Y32035D01*
X120251Y32083D01*
X120295Y32127D01*
X120343Y32169D01*
X120392Y32207D01*
X120444Y32242D01*
X120498Y32274D01*
X120554Y32303D01*
X120612Y32328D01*
X120671Y32349D01*
X120731Y32367D01*
X120793Y32380D01*
X120855Y32390D01*
X120917Y32396D01*
X120980Y32398D01*
X121043Y32396D01*
X121105Y32390D01*
X121167Y32380D01*
X121229Y32367D01*
X121289Y32349D01*
X121348Y32328D01*
X121406Y32303D01*
X121462Y32274D01*
X121516Y32242D01*
X121568Y32207D01*
X121617Y32169D01*
X121665Y32127D01*
X121709Y32083D01*
X121751Y32035D01*
X121789Y31986D01*
X121824Y31934D01*
X121856Y31880D01*
X121885Y31824D01*
X121910Y31766D01*
X121931Y31707D01*
X121949Y31647D01*
X121962Y31585D01*
X121972Y31523D01*
X121978Y31461D01*
X121980Y31398D01*
X121978Y31335D01*
X121972Y31273D01*
X121962Y31211D01*
X121949Y31149D01*
X121931Y31089D01*
X121910Y31030D01*
X121885Y30972D01*
X121856Y30916D01*
X121824Y30862D01*
X121789Y30810D01*
X121751Y30761D01*
X121709Y30713D01*
X121665Y30669D01*
X121617Y30627D01*
X121568Y30589D01*
X121516Y30554D01*
X121462Y30522D01*
X121406Y30493D01*
X121348Y30468D01*
X121289Y30447D01*
X121229Y30429D01*
X121167Y30416D01*
X121105Y30406D01*
X121043Y30400D01*
X120980Y30398D01*
X120917Y30400D01*
X120855Y30406D01*
X120793Y30416D01*
X120731Y30429D01*
X120671Y30447D01*
X120612Y30468D01*
X120554Y30493D01*
X120498Y30522D01*
X120444Y30554D01*
X120392Y30589D01*
X120343Y30627D01*
X120295Y30669D01*
X120251Y30713D01*
X120209Y30761D01*
X120171Y30810D01*
X120136Y30862D01*
X120104Y30916D01*
X120075Y30972D01*
X120050Y31030D01*
X120029Y31089D01*
X120011Y31149D01*
X119998Y31211D01*
X119988Y31273D01*
X119982Y31335D01*
X119980Y31398D01*
D14*
X197488Y46408D02*
X209172Y46408D01*
X209172Y49654D01*
X209170Y49767D01*
X209164Y49880D01*
X209154Y49993D01*
X209140Y50106D01*
X209123Y50218D01*
X209101Y50329D01*
X209076Y50439D01*
X209046Y50549D01*
X209013Y50657D01*
X208976Y50764D01*
X208936Y50870D01*
X208891Y50974D01*
X208843Y51077D01*
X208792Y51178D01*
X208737Y51277D01*
X208679Y51374D01*
X208617Y51469D01*
X208552Y51562D01*
X208484Y51652D01*
X208413Y51740D01*
X208338Y51826D01*
X208261Y51909D01*
X208181Y51989D01*
X208098Y52066D01*
X208012Y52141D01*
X207924Y52212D01*
X207834Y52280D01*
X207741Y52345D01*
X207646Y52407D01*
X207549Y52465D01*
X207450Y52520D01*
X207349Y52571D01*
X207246Y52619D01*
X207142Y52664D01*
X207036Y52704D01*
X206929Y52741D01*
X206821Y52774D01*
X206711Y52804D01*
X206601Y52829D01*
X206490Y52851D01*
X206378Y52868D01*
X206265Y52882D01*
X206152Y52892D01*
X206039Y52898D01*
X205926Y52900D01*
X205813Y52898D01*
X205700Y52892D01*
X205587Y52882D01*
X205474Y52868D01*
X205362Y52851D01*
X205251Y52829D01*
X205141Y52804D01*
X205031Y52774D01*
X204923Y52741D01*
X204816Y52704D01*
X204710Y52664D01*
X204606Y52619D01*
X204503Y52571D01*
X204402Y52520D01*
X204303Y52465D01*
X204206Y52407D01*
X204111Y52345D01*
X204018Y52280D01*
X203928Y52212D01*
X203840Y52141D01*
X203754Y52066D01*
X203671Y51989D01*
X203591Y51909D01*
X203514Y51826D01*
X203439Y51740D01*
X203368Y51652D01*
X203300Y51562D01*
X203235Y51469D01*
X203173Y51374D01*
X203115Y51277D01*
X203060Y51178D01*
X203009Y51077D01*
X202961Y50974D01*
X202916Y50870D01*
X202876Y50764D01*
X202839Y50657D01*
X202806Y50549D01*
X202776Y50439D01*
X202751Y50329D01*
X202729Y50218D01*
X202712Y50106D01*
X202698Y49993D01*
X202688Y49880D01*
X202682Y49767D01*
X202680Y49654D01*
X202681Y49654D02*
X202681Y46408D01*
X197488Y60801D02*
X197490Y60900D01*
X197496Y61000D01*
X197505Y61099D01*
X197518Y61197D01*
X197535Y61295D01*
X197556Y61393D01*
X197581Y61489D01*
X197609Y61584D01*
X197641Y61678D01*
X197676Y61771D01*
X197715Y61863D01*
X197758Y61953D01*
X197803Y62041D01*
X197853Y62128D01*
X197905Y62212D01*
X197961Y62295D01*
X198019Y62375D01*
X198081Y62453D01*
X198146Y62528D01*
X198214Y62601D01*
X198284Y62671D01*
X198357Y62739D01*
X198432Y62804D01*
X198510Y62866D01*
X198590Y62924D01*
X198673Y62980D01*
X198757Y63032D01*
X198844Y63082D01*
X198932Y63127D01*
X199022Y63170D01*
X199114Y63209D01*
X199207Y63244D01*
X199301Y63276D01*
X199396Y63304D01*
X199492Y63329D01*
X199590Y63350D01*
X199688Y63367D01*
X199786Y63380D01*
X199885Y63389D01*
X199985Y63395D01*
X200084Y63397D01*
X197488Y60801D02*
X197490Y60657D01*
X197496Y60512D01*
X197505Y60368D01*
X197518Y60225D01*
X197535Y60081D01*
X197556Y59938D01*
X197581Y59796D01*
X197609Y59655D01*
X197641Y59514D01*
X197677Y59374D01*
X197716Y59235D01*
X197759Y59097D01*
X197806Y58961D01*
X197856Y58825D01*
X197910Y58691D01*
X197967Y58559D01*
X198028Y58428D01*
X198092Y58299D01*
X198160Y58171D01*
X198230Y58045D01*
X198305Y57921D01*
X198382Y57800D01*
X198463Y57680D01*
X198546Y57562D01*
X198633Y57447D01*
X198723Y57334D01*
X198816Y57223D01*
X198911Y57115D01*
X199010Y57009D01*
X199111Y56906D01*
X206576Y57232D02*
X206675Y57234D01*
X206775Y57240D01*
X206874Y57249D01*
X206972Y57262D01*
X207070Y57279D01*
X207168Y57300D01*
X207264Y57325D01*
X207359Y57353D01*
X207453Y57385D01*
X207546Y57420D01*
X207638Y57459D01*
X207728Y57502D01*
X207816Y57547D01*
X207903Y57597D01*
X207987Y57649D01*
X208070Y57705D01*
X208150Y57763D01*
X208228Y57825D01*
X208303Y57890D01*
X208376Y57958D01*
X208446Y58028D01*
X208514Y58101D01*
X208579Y58176D01*
X208641Y58254D01*
X208699Y58334D01*
X208755Y58417D01*
X208807Y58501D01*
X208857Y58588D01*
X208902Y58676D01*
X208945Y58766D01*
X208984Y58858D01*
X209019Y58951D01*
X209051Y59045D01*
X209079Y59140D01*
X209104Y59237D01*
X209125Y59334D01*
X209142Y59432D01*
X209155Y59530D01*
X209164Y59629D01*
X209170Y59729D01*
X209172Y59828D01*
X209170Y59964D01*
X209164Y60100D01*
X209155Y60236D01*
X209142Y60372D01*
X209124Y60507D01*
X209104Y60641D01*
X209079Y60775D01*
X209051Y60909D01*
X209018Y61041D01*
X208983Y61172D01*
X208943Y61303D01*
X208900Y61432D01*
X208854Y61560D01*
X208803Y61686D01*
X208750Y61812D01*
X208692Y61935D01*
X208632Y62057D01*
X208568Y62177D01*
X208500Y62296D01*
X208430Y62412D01*
X208356Y62526D01*
X208279Y62639D01*
X208198Y62749D01*
X204304Y58529D02*
X204357Y58443D01*
X204414Y58359D01*
X204473Y58277D01*
X204536Y58197D01*
X204602Y58120D01*
X204670Y58045D01*
X204742Y57973D01*
X204816Y57904D01*
X204893Y57838D01*
X204972Y57775D01*
X205054Y57715D01*
X205138Y57658D01*
X205224Y57604D01*
X205312Y57554D01*
X205402Y57507D01*
X205493Y57463D01*
X205587Y57424D01*
X205681Y57387D01*
X205777Y57355D01*
X205875Y57326D01*
X205973Y57301D01*
X206072Y57280D01*
X206172Y57262D01*
X206272Y57249D01*
X206373Y57239D01*
X206475Y57233D01*
X206576Y57231D01*
X202356Y62100D02*
X202303Y62186D01*
X202246Y62270D01*
X202187Y62352D01*
X202124Y62432D01*
X202058Y62509D01*
X201990Y62584D01*
X201918Y62656D01*
X201844Y62725D01*
X201767Y62791D01*
X201688Y62854D01*
X201606Y62914D01*
X201522Y62971D01*
X201436Y63025D01*
X201348Y63075D01*
X201258Y63122D01*
X201167Y63166D01*
X201073Y63205D01*
X200979Y63242D01*
X200883Y63274D01*
X200785Y63303D01*
X200687Y63328D01*
X200588Y63349D01*
X200488Y63367D01*
X200388Y63380D01*
X200287Y63390D01*
X200185Y63396D01*
X200084Y63398D01*
X202356Y62100D02*
X204304Y58529D01*
X206576Y67956D02*
X209172Y71201D01*
X197488Y71201D01*
X197488Y67956D02*
X197488Y74447D01*
X-9828Y46408D02*
X-21512Y46408D01*
X-15021Y46408D02*
X-15021Y52899D01*
X-9828Y52899D02*
X-21512Y52899D01*
X-21512Y58623D02*
X-9828Y58623D01*
X-21512Y58623D02*
X-21512Y63815D01*
X-21512Y68675D02*
X-9828Y68675D01*
X-9828Y75166D02*
X-16968Y68675D01*
X-14372Y71272D02*
X-21512Y75166D01*
X-16968Y79668D02*
X-16968Y87457D01*
X-21512Y93059D02*
X-9828Y93059D01*
X-9828Y96305D01*
X-9830Y96418D01*
X-9836Y96531D01*
X-9846Y96644D01*
X-9860Y96757D01*
X-9877Y96869D01*
X-9899Y96980D01*
X-9924Y97090D01*
X-9954Y97200D01*
X-9987Y97308D01*
X-10024Y97415D01*
X-10064Y97521D01*
X-10109Y97625D01*
X-10157Y97728D01*
X-10208Y97829D01*
X-10263Y97928D01*
X-10321Y98025D01*
X-10383Y98120D01*
X-10448Y98213D01*
X-10516Y98303D01*
X-10587Y98391D01*
X-10662Y98477D01*
X-10739Y98560D01*
X-10819Y98640D01*
X-10902Y98717D01*
X-10988Y98792D01*
X-11076Y98863D01*
X-11166Y98931D01*
X-11259Y98996D01*
X-11354Y99058D01*
X-11451Y99116D01*
X-11550Y99171D01*
X-11651Y99222D01*
X-11754Y99270D01*
X-11858Y99315D01*
X-11964Y99355D01*
X-12071Y99392D01*
X-12179Y99425D01*
X-12289Y99455D01*
X-12399Y99480D01*
X-12510Y99502D01*
X-12622Y99519D01*
X-12735Y99533D01*
X-12848Y99543D01*
X-12961Y99549D01*
X-13074Y99551D01*
X-13187Y99549D01*
X-13300Y99543D01*
X-13413Y99533D01*
X-13526Y99519D01*
X-13638Y99502D01*
X-13749Y99480D01*
X-13859Y99455D01*
X-13969Y99425D01*
X-14077Y99392D01*
X-14184Y99355D01*
X-14290Y99315D01*
X-14394Y99270D01*
X-14497Y99222D01*
X-14598Y99171D01*
X-14697Y99116D01*
X-14794Y99058D01*
X-14889Y98996D01*
X-14982Y98931D01*
X-15072Y98863D01*
X-15160Y98792D01*
X-15246Y98717D01*
X-15329Y98640D01*
X-15409Y98560D01*
X-15486Y98477D01*
X-15561Y98391D01*
X-15632Y98303D01*
X-15700Y98213D01*
X-15765Y98120D01*
X-15827Y98025D01*
X-15885Y97928D01*
X-15940Y97829D01*
X-15991Y97728D01*
X-16039Y97625D01*
X-16084Y97521D01*
X-16124Y97415D01*
X-16161Y97308D01*
X-16194Y97200D01*
X-16224Y97090D01*
X-16249Y96980D01*
X-16271Y96869D01*
X-16288Y96757D01*
X-16302Y96644D01*
X-16312Y96531D01*
X-16318Y96418D01*
X-16320Y96305D01*
X-16319Y96305D02*
X-16319Y93059D01*
X-21512Y104433D02*
X-9828Y104433D01*
X-16319Y108327D01*
X-9828Y112222D01*
X-21512Y112222D01*
X-15670Y117655D02*
X-15440Y117658D01*
X-15210Y117666D01*
X-14981Y117680D01*
X-14752Y117699D01*
X-14523Y117724D01*
X-14295Y117754D01*
X-14068Y117789D01*
X-13842Y117830D01*
X-13617Y117876D01*
X-13393Y117928D01*
X-13170Y117985D01*
X-12949Y118047D01*
X-12729Y118115D01*
X-12511Y118188D01*
X-12295Y118266D01*
X-12081Y118349D01*
X-11869Y118437D01*
X-11658Y118530D01*
X-11451Y118629D01*
X-11451Y118628D02*
X-11361Y118661D01*
X-11272Y118697D01*
X-11184Y118737D01*
X-11099Y118781D01*
X-11015Y118828D01*
X-10933Y118878D01*
X-10853Y118932D01*
X-10776Y118988D01*
X-10700Y119048D01*
X-10627Y119111D01*
X-10557Y119176D01*
X-10489Y119245D01*
X-10425Y119316D01*
X-10363Y119389D01*
X-10304Y119465D01*
X-10248Y119543D01*
X-10195Y119624D01*
X-10146Y119706D01*
X-10100Y119790D01*
X-10057Y119877D01*
X-10018Y119964D01*
X-9982Y120054D01*
X-9950Y120144D01*
X-9922Y120236D01*
X-9897Y120329D01*
X-9876Y120423D01*
X-9859Y120517D01*
X-9845Y120612D01*
X-9836Y120708D01*
X-9830Y120804D01*
X-9828Y120900D01*
X-9830Y120996D01*
X-9836Y121092D01*
X-9845Y121188D01*
X-9859Y121283D01*
X-9876Y121377D01*
X-9897Y121471D01*
X-9922Y121564D01*
X-9950Y121656D01*
X-9982Y121746D01*
X-10018Y121836D01*
X-10057Y121924D01*
X-10100Y122010D01*
X-10146Y122094D01*
X-10195Y122176D01*
X-10248Y122257D01*
X-10304Y122335D01*
X-10363Y122411D01*
X-10425Y122484D01*
X-10489Y122555D01*
X-10557Y122624D01*
X-10627Y122689D01*
X-10700Y122752D01*
X-10776Y122812D01*
X-10853Y122868D01*
X-10933Y122922D01*
X-11015Y122972D01*
X-11099Y123019D01*
X-11184Y123063D01*
X-11272Y123103D01*
X-11361Y123139D01*
X-11451Y123172D01*
X-11658Y123271D01*
X-11869Y123364D01*
X-12081Y123452D01*
X-12295Y123535D01*
X-12511Y123613D01*
X-12729Y123686D01*
X-12949Y123754D01*
X-13170Y123816D01*
X-13393Y123873D01*
X-13617Y123925D01*
X-13842Y123971D01*
X-14068Y124012D01*
X-14295Y124047D01*
X-14523Y124077D01*
X-14752Y124102D01*
X-14981Y124121D01*
X-15210Y124135D01*
X-15440Y124143D01*
X-15670Y124146D01*
X-15670Y117655D02*
X-15900Y117658D01*
X-16130Y117666D01*
X-16359Y117680D01*
X-16588Y117699D01*
X-16817Y117724D01*
X-17045Y117754D01*
X-17272Y117789D01*
X-17498Y117830D01*
X-17723Y117876D01*
X-17947Y117928D01*
X-18170Y117985D01*
X-18391Y118047D01*
X-18611Y118115D01*
X-18829Y118188D01*
X-19045Y118266D01*
X-19259Y118349D01*
X-19471Y118437D01*
X-19682Y118530D01*
X-19889Y118629D01*
X-19889Y118628D02*
X-19979Y118661D01*
X-20068Y118697D01*
X-20156Y118738D01*
X-20241Y118781D01*
X-20325Y118828D01*
X-20407Y118878D01*
X-20487Y118932D01*
X-20564Y118988D01*
X-20640Y119048D01*
X-20713Y119111D01*
X-20783Y119176D01*
X-20851Y119245D01*
X-20915Y119316D01*
X-20977Y119389D01*
X-21036Y119465D01*
X-21092Y119543D01*
X-21145Y119624D01*
X-21194Y119706D01*
X-21240Y119790D01*
X-21283Y119877D01*
X-21322Y119964D01*
X-21358Y120054D01*
X-21390Y120144D01*
X-21418Y120236D01*
X-21443Y120329D01*
X-21464Y120423D01*
X-21481Y120517D01*
X-21495Y120612D01*
X-21504Y120708D01*
X-21510Y120804D01*
X-21512Y120900D01*
X-19889Y123172D02*
X-19682Y123271D01*
X-19471Y123364D01*
X-19259Y123452D01*
X-19045Y123535D01*
X-18829Y123613D01*
X-18611Y123686D01*
X-18391Y123754D01*
X-18170Y123816D01*
X-17947Y123873D01*
X-17723Y123925D01*
X-17498Y123971D01*
X-17272Y124012D01*
X-17045Y124047D01*
X-16817Y124077D01*
X-16588Y124102D01*
X-16359Y124121D01*
X-16130Y124135D01*
X-15900Y124143D01*
X-15670Y124146D01*
X-19889Y123172D02*
X-19979Y123139D01*
X-20068Y123103D01*
X-20156Y123063D01*
X-20241Y123019D01*
X-20325Y122972D01*
X-20407Y122922D01*
X-20487Y122868D01*
X-20564Y122812D01*
X-20640Y122752D01*
X-20713Y122689D01*
X-20783Y122624D01*
X-20851Y122555D01*
X-20915Y122484D01*
X-20977Y122411D01*
X-21036Y122335D01*
X-21092Y122257D01*
X-21145Y122176D01*
X-21194Y122094D01*
X-21240Y122010D01*
X-21283Y121923D01*
X-21322Y121836D01*
X-21358Y121746D01*
X-21390Y121656D01*
X-21418Y121564D01*
X-21443Y121471D01*
X-21464Y121377D01*
X-21481Y121283D01*
X-21495Y121188D01*
X-21504Y121092D01*
X-21510Y120996D01*
X-21512Y120900D01*
X-18916Y118304D02*
X-12424Y123497D01*
X-21512Y129085D02*
X-21512Y132330D01*
X-21510Y132443D01*
X-21504Y132556D01*
X-21494Y132669D01*
X-21480Y132782D01*
X-21463Y132894D01*
X-21441Y133005D01*
X-21416Y133115D01*
X-21386Y133225D01*
X-21353Y133333D01*
X-21316Y133440D01*
X-21276Y133546D01*
X-21231Y133650D01*
X-21183Y133753D01*
X-21132Y133854D01*
X-21077Y133953D01*
X-21019Y134050D01*
X-20957Y134145D01*
X-20892Y134238D01*
X-20824Y134328D01*
X-20753Y134416D01*
X-20678Y134502D01*
X-20601Y134585D01*
X-20521Y134665D01*
X-20438Y134742D01*
X-20352Y134817D01*
X-20264Y134888D01*
X-20174Y134956D01*
X-20081Y135021D01*
X-19986Y135083D01*
X-19889Y135141D01*
X-19790Y135196D01*
X-19689Y135247D01*
X-19586Y135295D01*
X-19482Y135340D01*
X-19376Y135380D01*
X-19269Y135417D01*
X-19161Y135450D01*
X-19051Y135480D01*
X-18941Y135505D01*
X-18830Y135527D01*
X-18718Y135544D01*
X-18605Y135558D01*
X-18492Y135568D01*
X-18379Y135574D01*
X-18266Y135576D01*
X-18153Y135574D01*
X-18040Y135568D01*
X-17927Y135558D01*
X-17814Y135544D01*
X-17702Y135527D01*
X-17591Y135505D01*
X-17481Y135480D01*
X-17371Y135450D01*
X-17263Y135417D01*
X-17156Y135380D01*
X-17050Y135340D01*
X-16946Y135295D01*
X-16843Y135247D01*
X-16742Y135196D01*
X-16643Y135141D01*
X-16546Y135083D01*
X-16451Y135021D01*
X-16358Y134956D01*
X-16268Y134888D01*
X-16180Y134817D01*
X-16094Y134742D01*
X-16011Y134665D01*
X-15931Y134585D01*
X-15854Y134502D01*
X-15779Y134416D01*
X-15708Y134328D01*
X-15640Y134238D01*
X-15575Y134145D01*
X-15513Y134050D01*
X-15455Y133953D01*
X-15400Y133854D01*
X-15349Y133753D01*
X-15301Y133650D01*
X-15256Y133546D01*
X-15216Y133440D01*
X-15179Y133333D01*
X-15146Y133225D01*
X-15116Y133115D01*
X-15091Y133005D01*
X-15069Y132894D01*
X-15052Y132782D01*
X-15038Y132669D01*
X-15028Y132556D01*
X-15022Y132443D01*
X-15020Y132330D01*
X-9828Y132980D02*
X-9828Y129085D01*
X-9828Y132980D02*
X-9830Y133081D01*
X-9836Y133181D01*
X-9846Y133281D01*
X-9859Y133381D01*
X-9877Y133480D01*
X-9898Y133579D01*
X-9923Y133676D01*
X-9952Y133773D01*
X-9985Y133868D01*
X-10021Y133962D01*
X-10061Y134054D01*
X-10104Y134145D01*
X-10151Y134234D01*
X-10201Y134321D01*
X-10255Y134407D01*
X-10312Y134490D01*
X-10372Y134570D01*
X-10435Y134649D01*
X-10502Y134725D01*
X-10571Y134798D01*
X-10643Y134868D01*
X-10717Y134936D01*
X-10794Y135001D01*
X-10874Y135062D01*
X-10956Y135121D01*
X-11040Y135176D01*
X-11126Y135228D01*
X-11214Y135277D01*
X-11304Y135322D01*
X-11396Y135364D01*
X-11489Y135402D01*
X-11584Y135436D01*
X-11679Y135467D01*
X-11776Y135494D01*
X-11874Y135517D01*
X-11973Y135537D01*
X-12073Y135552D01*
X-12173Y135564D01*
X-12273Y135572D01*
X-12374Y135576D01*
X-12474Y135576D01*
X-12575Y135572D01*
X-12675Y135564D01*
X-12775Y135552D01*
X-12875Y135537D01*
X-12974Y135517D01*
X-13072Y135494D01*
X-13169Y135467D01*
X-13264Y135436D01*
X-13359Y135402D01*
X-13452Y135364D01*
X-13544Y135322D01*
X-13634Y135277D01*
X-13722Y135228D01*
X-13808Y135176D01*
X-13892Y135121D01*
X-13974Y135062D01*
X-14054Y135001D01*
X-14131Y134936D01*
X-14205Y134868D01*
X-14277Y134798D01*
X-14346Y134725D01*
X-14413Y134649D01*
X-14476Y134570D01*
X-14536Y134490D01*
X-14593Y134407D01*
X-14647Y134321D01*
X-14697Y134234D01*
X-14744Y134145D01*
X-14787Y134054D01*
X-14827Y133962D01*
X-14863Y133868D01*
X-14896Y133773D01*
X-14925Y133676D01*
X-14950Y133579D01*
X-14971Y133480D01*
X-14989Y133381D01*
X-15002Y133281D01*
X-15012Y133181D01*
X-15018Y133081D01*
X-15020Y132980D01*
X-15021Y132980D02*
X-15021Y130383D01*
M02*
