G04 EAGLE Gerber RS-274X export*
G75*
%MOMM*%
%FSLAX34Y34*%
%LPD*%
%INSilkscreen Top*%
%IPPOS*%
%AMOC8*
5,1,8,0,0,1.08239X$1,22.5*%
G01*
%ADD10C,0.076200*%
%ADD11C,0.152400*%
%ADD12R,0.381000X0.508000*%
%ADD13C,0.101600*%
%ADD14C,0.127000*%
%ADD15C,0.254000*%
%ADD16C,0.200000*%


D10*
X66336Y193167D02*
X66336Y187438D01*
X66334Y187360D01*
X66329Y187282D01*
X66319Y187205D01*
X66306Y187128D01*
X66290Y187052D01*
X66270Y186977D01*
X66246Y186903D01*
X66219Y186830D01*
X66188Y186758D01*
X66154Y186688D01*
X66117Y186620D01*
X66076Y186553D01*
X66032Y186488D01*
X65986Y186426D01*
X65936Y186366D01*
X65884Y186308D01*
X65829Y186253D01*
X65771Y186201D01*
X65711Y186151D01*
X65649Y186105D01*
X65584Y186061D01*
X65518Y186020D01*
X65449Y185983D01*
X65379Y185949D01*
X65307Y185918D01*
X65234Y185891D01*
X65160Y185867D01*
X65085Y185847D01*
X65009Y185831D01*
X64932Y185818D01*
X64855Y185808D01*
X64777Y185803D01*
X64699Y185801D01*
X63881Y185801D01*
X70030Y185801D02*
X70030Y193167D01*
X70030Y185801D02*
X73304Y185801D01*
X77724Y185801D02*
X79361Y185801D01*
X77724Y185801D02*
X77646Y185803D01*
X77568Y185808D01*
X77491Y185818D01*
X77414Y185831D01*
X77338Y185847D01*
X77263Y185867D01*
X77189Y185891D01*
X77116Y185918D01*
X77044Y185949D01*
X76974Y185983D01*
X76906Y186020D01*
X76839Y186061D01*
X76774Y186105D01*
X76712Y186151D01*
X76652Y186201D01*
X76594Y186253D01*
X76539Y186308D01*
X76487Y186366D01*
X76437Y186426D01*
X76391Y186488D01*
X76347Y186553D01*
X76306Y186620D01*
X76269Y186688D01*
X76235Y186758D01*
X76204Y186830D01*
X76177Y186903D01*
X76153Y186977D01*
X76133Y187052D01*
X76117Y187128D01*
X76104Y187205D01*
X76094Y187282D01*
X76089Y187360D01*
X76087Y187438D01*
X76088Y187438D02*
X76088Y191530D01*
X76087Y191530D02*
X76089Y191610D01*
X76095Y191690D01*
X76105Y191770D01*
X76118Y191849D01*
X76136Y191928D01*
X76157Y192005D01*
X76183Y192081D01*
X76212Y192156D01*
X76244Y192230D01*
X76280Y192302D01*
X76320Y192372D01*
X76363Y192439D01*
X76409Y192505D01*
X76459Y192568D01*
X76511Y192629D01*
X76566Y192688D01*
X76625Y192743D01*
X76685Y192795D01*
X76749Y192845D01*
X76815Y192891D01*
X76882Y192934D01*
X76952Y192974D01*
X77024Y193010D01*
X77098Y193042D01*
X77172Y193071D01*
X77249Y193097D01*
X77326Y193118D01*
X77405Y193136D01*
X77484Y193149D01*
X77564Y193159D01*
X77644Y193165D01*
X77724Y193167D01*
X79361Y193167D01*
X83893Y193167D02*
X83893Y187438D01*
X83891Y187360D01*
X83886Y187282D01*
X83876Y187205D01*
X83863Y187128D01*
X83847Y187052D01*
X83827Y186977D01*
X83803Y186903D01*
X83776Y186830D01*
X83745Y186758D01*
X83711Y186688D01*
X83674Y186620D01*
X83633Y186553D01*
X83589Y186488D01*
X83543Y186426D01*
X83493Y186366D01*
X83441Y186308D01*
X83386Y186253D01*
X83328Y186201D01*
X83268Y186151D01*
X83206Y186105D01*
X83141Y186061D01*
X83075Y186020D01*
X83006Y185983D01*
X82936Y185949D01*
X82864Y185918D01*
X82791Y185891D01*
X82717Y185867D01*
X82642Y185847D01*
X82566Y185831D01*
X82489Y185818D01*
X82412Y185808D01*
X82334Y185803D01*
X82256Y185801D01*
X81437Y185801D01*
X87587Y185801D02*
X87587Y193167D01*
X87587Y185801D02*
X90860Y185801D01*
X95281Y185801D02*
X96918Y185801D01*
X95281Y185801D02*
X95203Y185803D01*
X95125Y185808D01*
X95048Y185818D01*
X94971Y185831D01*
X94895Y185847D01*
X94820Y185867D01*
X94746Y185891D01*
X94673Y185918D01*
X94601Y185949D01*
X94531Y185983D01*
X94463Y186020D01*
X94396Y186061D01*
X94331Y186105D01*
X94269Y186151D01*
X94209Y186201D01*
X94151Y186253D01*
X94096Y186308D01*
X94044Y186366D01*
X93994Y186426D01*
X93948Y186488D01*
X93904Y186553D01*
X93863Y186620D01*
X93826Y186688D01*
X93792Y186758D01*
X93761Y186830D01*
X93734Y186903D01*
X93710Y186977D01*
X93690Y187052D01*
X93674Y187128D01*
X93661Y187205D01*
X93651Y187282D01*
X93646Y187360D01*
X93644Y187438D01*
X93644Y191530D01*
X93646Y191610D01*
X93652Y191690D01*
X93662Y191770D01*
X93675Y191849D01*
X93693Y191928D01*
X93714Y192005D01*
X93740Y192081D01*
X93769Y192156D01*
X93801Y192230D01*
X93837Y192302D01*
X93877Y192372D01*
X93920Y192439D01*
X93966Y192505D01*
X94016Y192568D01*
X94068Y192629D01*
X94123Y192688D01*
X94182Y192743D01*
X94242Y192795D01*
X94306Y192845D01*
X94372Y192891D01*
X94439Y192934D01*
X94509Y192974D01*
X94581Y193010D01*
X94655Y193042D01*
X94729Y193071D01*
X94806Y193097D01*
X94883Y193118D01*
X94962Y193136D01*
X95041Y193149D01*
X95121Y193159D01*
X95201Y193165D01*
X95281Y193167D01*
X96918Y193167D01*
X101449Y193167D02*
X101449Y187438D01*
X101447Y187360D01*
X101442Y187282D01*
X101432Y187205D01*
X101419Y187128D01*
X101403Y187052D01*
X101383Y186977D01*
X101359Y186903D01*
X101332Y186830D01*
X101301Y186758D01*
X101267Y186688D01*
X101230Y186620D01*
X101189Y186553D01*
X101145Y186488D01*
X101099Y186426D01*
X101049Y186366D01*
X100997Y186308D01*
X100942Y186253D01*
X100884Y186201D01*
X100824Y186151D01*
X100762Y186105D01*
X100697Y186061D01*
X100631Y186020D01*
X100562Y185983D01*
X100492Y185949D01*
X100420Y185918D01*
X100347Y185891D01*
X100273Y185867D01*
X100198Y185847D01*
X100122Y185831D01*
X100045Y185818D01*
X99968Y185808D01*
X99890Y185803D01*
X99812Y185801D01*
X98994Y185801D01*
X105143Y185801D02*
X105143Y193167D01*
X105143Y185801D02*
X108417Y185801D01*
X112837Y185801D02*
X114474Y185801D01*
X112837Y185801D02*
X112759Y185803D01*
X112681Y185808D01*
X112604Y185818D01*
X112527Y185831D01*
X112451Y185847D01*
X112376Y185867D01*
X112302Y185891D01*
X112229Y185918D01*
X112157Y185949D01*
X112087Y185983D01*
X112019Y186020D01*
X111952Y186061D01*
X111887Y186105D01*
X111825Y186151D01*
X111765Y186201D01*
X111707Y186253D01*
X111652Y186308D01*
X111600Y186366D01*
X111550Y186426D01*
X111504Y186488D01*
X111460Y186553D01*
X111419Y186620D01*
X111382Y186688D01*
X111348Y186758D01*
X111317Y186830D01*
X111290Y186903D01*
X111266Y186977D01*
X111246Y187052D01*
X111230Y187128D01*
X111217Y187205D01*
X111207Y187282D01*
X111202Y187360D01*
X111200Y187438D01*
X111200Y191530D01*
X111202Y191610D01*
X111208Y191690D01*
X111218Y191770D01*
X111231Y191849D01*
X111249Y191928D01*
X111270Y192005D01*
X111296Y192081D01*
X111325Y192156D01*
X111357Y192230D01*
X111393Y192302D01*
X111433Y192372D01*
X111476Y192439D01*
X111522Y192505D01*
X111572Y192568D01*
X111624Y192629D01*
X111679Y192688D01*
X111738Y192743D01*
X111798Y192795D01*
X111862Y192845D01*
X111928Y192891D01*
X111995Y192934D01*
X112065Y192974D01*
X112137Y193010D01*
X112211Y193042D01*
X112285Y193071D01*
X112362Y193097D01*
X112439Y193118D01*
X112518Y193136D01*
X112597Y193149D01*
X112677Y193159D01*
X112757Y193165D01*
X112837Y193167D01*
X114474Y193167D01*
X119005Y193167D02*
X119005Y187438D01*
X119006Y187438D02*
X119004Y187360D01*
X118999Y187282D01*
X118989Y187205D01*
X118976Y187128D01*
X118960Y187052D01*
X118940Y186977D01*
X118916Y186903D01*
X118889Y186830D01*
X118858Y186758D01*
X118824Y186688D01*
X118787Y186620D01*
X118746Y186553D01*
X118702Y186488D01*
X118656Y186426D01*
X118606Y186366D01*
X118554Y186308D01*
X118499Y186253D01*
X118441Y186201D01*
X118381Y186151D01*
X118319Y186105D01*
X118254Y186061D01*
X118188Y186020D01*
X118119Y185983D01*
X118049Y185949D01*
X117977Y185918D01*
X117904Y185891D01*
X117830Y185867D01*
X117755Y185847D01*
X117679Y185831D01*
X117602Y185818D01*
X117525Y185808D01*
X117447Y185803D01*
X117369Y185801D01*
X116550Y185801D01*
X122699Y185801D02*
X122699Y193167D01*
X122699Y185801D02*
X125973Y185801D01*
X130394Y185801D02*
X132030Y185801D01*
X130394Y185801D02*
X130316Y185803D01*
X130238Y185808D01*
X130161Y185818D01*
X130084Y185831D01*
X130008Y185847D01*
X129933Y185867D01*
X129859Y185891D01*
X129786Y185918D01*
X129714Y185949D01*
X129644Y185983D01*
X129576Y186020D01*
X129509Y186061D01*
X129444Y186105D01*
X129382Y186151D01*
X129322Y186201D01*
X129264Y186253D01*
X129209Y186308D01*
X129157Y186366D01*
X129107Y186426D01*
X129061Y186488D01*
X129017Y186553D01*
X128976Y186620D01*
X128939Y186688D01*
X128905Y186758D01*
X128874Y186830D01*
X128847Y186903D01*
X128823Y186977D01*
X128803Y187052D01*
X128787Y187128D01*
X128774Y187205D01*
X128764Y187282D01*
X128759Y187360D01*
X128757Y187438D01*
X128757Y191530D01*
X128759Y191610D01*
X128765Y191690D01*
X128775Y191770D01*
X128788Y191849D01*
X128806Y191928D01*
X128827Y192005D01*
X128853Y192081D01*
X128882Y192156D01*
X128914Y192230D01*
X128950Y192302D01*
X128990Y192372D01*
X129033Y192439D01*
X129079Y192505D01*
X129129Y192568D01*
X129181Y192629D01*
X129236Y192688D01*
X129295Y192743D01*
X129355Y192795D01*
X129419Y192845D01*
X129485Y192891D01*
X129552Y192934D01*
X129622Y192974D01*
X129694Y193010D01*
X129768Y193042D01*
X129842Y193071D01*
X129919Y193097D01*
X129996Y193118D01*
X130075Y193136D01*
X130154Y193149D01*
X130234Y193159D01*
X130314Y193165D01*
X130394Y193167D01*
X132030Y193167D01*
D11*
X78740Y111760D02*
X78640Y111758D01*
X78541Y111752D01*
X78441Y111742D01*
X78343Y111729D01*
X78244Y111711D01*
X78147Y111690D01*
X78051Y111665D01*
X77955Y111636D01*
X77861Y111603D01*
X77768Y111567D01*
X77677Y111527D01*
X77587Y111483D01*
X77499Y111436D01*
X77413Y111386D01*
X77329Y111332D01*
X77247Y111275D01*
X77168Y111215D01*
X77090Y111151D01*
X77016Y111085D01*
X76944Y111016D01*
X76875Y110944D01*
X76809Y110870D01*
X76745Y110792D01*
X76685Y110713D01*
X76628Y110631D01*
X76574Y110547D01*
X76524Y110461D01*
X76477Y110373D01*
X76433Y110283D01*
X76393Y110192D01*
X76357Y110099D01*
X76324Y110005D01*
X76295Y109909D01*
X76270Y109813D01*
X76249Y109716D01*
X76231Y109617D01*
X76218Y109519D01*
X76208Y109419D01*
X76202Y109320D01*
X76200Y109220D01*
X76200Y93980D02*
X76202Y93880D01*
X76208Y93781D01*
X76218Y93681D01*
X76231Y93583D01*
X76249Y93484D01*
X76270Y93387D01*
X76295Y93291D01*
X76324Y93195D01*
X76357Y93101D01*
X76393Y93008D01*
X76433Y92917D01*
X76477Y92827D01*
X76524Y92739D01*
X76574Y92653D01*
X76628Y92569D01*
X76685Y92487D01*
X76745Y92408D01*
X76809Y92330D01*
X76875Y92256D01*
X76944Y92184D01*
X77016Y92115D01*
X77090Y92049D01*
X77168Y91985D01*
X77247Y91925D01*
X77329Y91868D01*
X77413Y91814D01*
X77499Y91764D01*
X77587Y91717D01*
X77677Y91673D01*
X77768Y91633D01*
X77861Y91597D01*
X77955Y91564D01*
X78051Y91535D01*
X78147Y91510D01*
X78244Y91489D01*
X78343Y91471D01*
X78441Y91458D01*
X78541Y91448D01*
X78640Y91442D01*
X78740Y91440D01*
X124460Y91440D02*
X124560Y91442D01*
X124659Y91448D01*
X124759Y91458D01*
X124857Y91471D01*
X124956Y91489D01*
X125053Y91510D01*
X125149Y91535D01*
X125245Y91564D01*
X125339Y91597D01*
X125432Y91633D01*
X125523Y91673D01*
X125613Y91717D01*
X125701Y91764D01*
X125787Y91814D01*
X125871Y91868D01*
X125953Y91925D01*
X126032Y91985D01*
X126110Y92049D01*
X126184Y92115D01*
X126256Y92184D01*
X126325Y92256D01*
X126391Y92330D01*
X126455Y92408D01*
X126515Y92487D01*
X126572Y92569D01*
X126626Y92653D01*
X126676Y92739D01*
X126723Y92827D01*
X126767Y92917D01*
X126807Y93008D01*
X126843Y93101D01*
X126876Y93195D01*
X126905Y93291D01*
X126930Y93387D01*
X126951Y93484D01*
X126969Y93583D01*
X126982Y93681D01*
X126992Y93781D01*
X126998Y93880D01*
X127000Y93980D01*
X127000Y109220D02*
X126998Y109320D01*
X126992Y109419D01*
X126982Y109519D01*
X126969Y109617D01*
X126951Y109716D01*
X126930Y109813D01*
X126905Y109909D01*
X126876Y110005D01*
X126843Y110099D01*
X126807Y110192D01*
X126767Y110283D01*
X126723Y110373D01*
X126676Y110461D01*
X126626Y110547D01*
X126572Y110631D01*
X126515Y110713D01*
X126455Y110792D01*
X126391Y110870D01*
X126325Y110944D01*
X126256Y111016D01*
X126184Y111085D01*
X126110Y111151D01*
X126032Y111215D01*
X125953Y111275D01*
X125871Y111332D01*
X125787Y111386D01*
X125701Y111436D01*
X125613Y111483D01*
X125523Y111527D01*
X125432Y111567D01*
X125339Y111603D01*
X125245Y111636D01*
X125149Y111665D01*
X125053Y111690D01*
X124956Y111711D01*
X124857Y111729D01*
X124759Y111742D01*
X124659Y111752D01*
X124560Y111758D01*
X124460Y111760D01*
X76200Y109220D02*
X76200Y93980D01*
X78740Y111760D02*
X82550Y111760D01*
X83820Y110490D01*
X82550Y91440D02*
X78740Y91440D01*
X82550Y91440D02*
X83820Y92710D01*
X119380Y110490D02*
X120650Y111760D01*
X119380Y110490D02*
X83820Y110490D01*
X119380Y92710D02*
X120650Y91440D01*
X119380Y92710D02*
X83820Y92710D01*
X120650Y111760D02*
X124460Y111760D01*
X124460Y91440D02*
X120650Y91440D01*
X127000Y93980D02*
X127000Y109220D01*
D12*
X128905Y101600D03*
X74295Y101600D03*
D13*
X76708Y115062D02*
X76708Y123952D01*
X79177Y123952D01*
X79275Y123950D01*
X79373Y123944D01*
X79471Y123934D01*
X79568Y123921D01*
X79665Y123903D01*
X79761Y123882D01*
X79855Y123857D01*
X79949Y123828D01*
X80042Y123796D01*
X80133Y123759D01*
X80223Y123720D01*
X80311Y123676D01*
X80397Y123629D01*
X80482Y123579D01*
X80564Y123526D01*
X80644Y123469D01*
X80722Y123409D01*
X80797Y123346D01*
X80870Y123280D01*
X80940Y123211D01*
X81007Y123140D01*
X81072Y123066D01*
X81133Y122989D01*
X81192Y122910D01*
X81247Y122829D01*
X81299Y122746D01*
X81347Y122660D01*
X81392Y122573D01*
X81434Y122484D01*
X81472Y122394D01*
X81506Y122302D01*
X81537Y122209D01*
X81564Y122114D01*
X81587Y122019D01*
X81607Y121922D01*
X81622Y121826D01*
X81634Y121728D01*
X81642Y121630D01*
X81646Y121532D01*
X81646Y121434D01*
X81642Y121336D01*
X81634Y121238D01*
X81622Y121140D01*
X81607Y121044D01*
X81587Y120947D01*
X81564Y120852D01*
X81537Y120757D01*
X81506Y120664D01*
X81472Y120572D01*
X81434Y120482D01*
X81392Y120393D01*
X81347Y120306D01*
X81299Y120220D01*
X81247Y120137D01*
X81192Y120056D01*
X81133Y119977D01*
X81072Y119900D01*
X81007Y119826D01*
X80940Y119755D01*
X80870Y119686D01*
X80797Y119620D01*
X80722Y119557D01*
X80644Y119497D01*
X80564Y119440D01*
X80482Y119387D01*
X80397Y119337D01*
X80311Y119290D01*
X80223Y119246D01*
X80133Y119207D01*
X80042Y119170D01*
X79949Y119138D01*
X79855Y119109D01*
X79761Y119084D01*
X79665Y119063D01*
X79568Y119045D01*
X79471Y119032D01*
X79373Y119022D01*
X79275Y119016D01*
X79177Y119014D01*
X79177Y119013D02*
X76708Y119013D01*
X79671Y119013D02*
X81647Y115062D01*
X85558Y121976D02*
X88027Y123952D01*
X88027Y115062D01*
X85558Y115062D02*
X90497Y115062D01*
X87828Y106172D02*
X85852Y99258D01*
X90791Y99258D01*
X89309Y101233D02*
X89309Y97282D01*
X94315Y97282D02*
X94315Y97776D01*
X94809Y97776D01*
X94809Y97282D01*
X94315Y97282D01*
X98334Y105184D02*
X98334Y106172D01*
X103272Y106172D01*
X100803Y97282D01*
X107697Y97282D02*
X107697Y106172D01*
X112636Y106172D02*
X107697Y100739D01*
X109672Y102715D02*
X112636Y97282D01*
D14*
X20320Y127000D02*
X20320Y317500D01*
X20320Y381000D01*
X167640Y381000D01*
X167640Y317500D01*
X167640Y127000D01*
X138430Y127000D01*
X125730Y127000D01*
X113030Y127000D01*
X100330Y127000D01*
X87630Y127000D01*
X74930Y127000D01*
X62230Y127000D01*
X49530Y127000D01*
X20320Y127000D01*
X20320Y317500D02*
X167640Y317500D01*
D11*
X47607Y357378D02*
X42189Y341122D01*
X53026Y341122D02*
X47607Y357378D01*
X51671Y345186D02*
X43543Y345186D01*
X59244Y341122D02*
X59244Y357378D01*
X68275Y341122D01*
X68275Y357378D01*
X78870Y357378D02*
X78870Y341122D01*
X74354Y357378D02*
X83385Y357378D01*
X89494Y341122D02*
X96719Y341122D01*
X89494Y341122D02*
X89494Y357378D01*
X96719Y357378D01*
X94913Y350153D02*
X89494Y350153D01*
X103012Y357378D02*
X103012Y341122D01*
X112043Y341122D02*
X103012Y357378D01*
X112043Y357378D02*
X112043Y341122D01*
X119685Y341122D02*
X119685Y357378D01*
X128716Y341122D01*
X128716Y357378D01*
X140353Y357378D02*
X134934Y341122D01*
X145771Y341122D02*
X140353Y357378D01*
X144417Y345186D02*
X136289Y345186D01*
D14*
X43180Y133350D02*
X49530Y127000D01*
X43180Y133350D02*
X43180Y146050D01*
X49530Y152400D01*
X43180Y158750D01*
X43180Y171450D01*
X49530Y177800D01*
X62230Y177800D01*
X68580Y171450D01*
X74930Y177800D01*
X87630Y177800D01*
X93980Y171450D01*
X100330Y177800D01*
X113030Y177800D01*
X119380Y171450D01*
X125730Y177800D01*
X138430Y177800D01*
X144780Y171450D01*
X144780Y158750D01*
X138430Y152400D01*
X144780Y146050D01*
X144780Y133350D01*
X138430Y127000D01*
X125730Y127000D02*
X119380Y133350D01*
X113030Y127000D01*
X100330Y127000D02*
X93980Y133350D01*
X87630Y127000D01*
X74930Y127000D02*
X68580Y133350D01*
X62230Y127000D01*
X219964Y124460D02*
X219964Y3048D01*
X57404Y3048D01*
X57404Y124460D01*
X219964Y124460D01*
X159512Y65024D02*
X159512Y61976D01*
X156464Y61976D01*
X156464Y65024D01*
X159512Y65024D01*
X160020Y116840D02*
X160020Y119888D01*
X160020Y116840D02*
X156972Y116840D01*
X156972Y119888D01*
X160020Y119888D01*
X160020Y10160D02*
X160020Y7112D01*
X156972Y7112D01*
X156972Y10160D01*
X160020Y10160D01*
X160020Y89408D02*
X160020Y92456D01*
X160020Y89408D02*
X156972Y89408D01*
X156972Y92456D01*
X160020Y92456D01*
X160020Y37592D02*
X160020Y34544D01*
X156972Y34544D01*
X156972Y37592D01*
X160020Y37592D01*
X134112Y62484D02*
X134112Y65532D01*
X134112Y62484D02*
X131064Y62484D01*
X131064Y65532D01*
X134112Y65532D01*
X134620Y117348D02*
X134620Y120396D01*
X134620Y117348D02*
X131572Y117348D01*
X131572Y120396D01*
X134620Y120396D01*
X134620Y10668D02*
X134620Y7620D01*
X131572Y7620D01*
X131572Y10668D01*
X134620Y10668D01*
X134620Y89916D02*
X134620Y92964D01*
X134620Y89916D02*
X131572Y89916D01*
X131572Y92964D01*
X134620Y92964D01*
X134620Y38100D02*
X134620Y35052D01*
X131572Y35052D01*
X131572Y38100D01*
X134620Y38100D01*
X213360Y61976D02*
X213360Y65024D01*
X213360Y61976D02*
X210312Y61976D01*
X210312Y65024D01*
X213360Y65024D01*
X213868Y89408D02*
X213868Y92456D01*
X213868Y89408D02*
X210820Y89408D01*
X210820Y92456D01*
X213868Y92456D01*
X213868Y37592D02*
X213868Y34544D01*
X210820Y34544D01*
X210820Y37592D01*
X213868Y37592D01*
X187960Y62484D02*
X187960Y65532D01*
X187960Y62484D02*
X184912Y62484D01*
X184912Y65532D01*
X187960Y65532D01*
X188468Y89916D02*
X188468Y92964D01*
X188468Y89916D02*
X185420Y89916D01*
X185420Y92964D01*
X188468Y92964D01*
X188468Y38100D02*
X188468Y35052D01*
X185420Y35052D01*
X185420Y38100D01*
X188468Y38100D01*
X106680Y62484D02*
X106680Y65532D01*
X106680Y62484D02*
X103632Y62484D01*
X103632Y65532D01*
X106680Y65532D01*
X107188Y89916D02*
X107188Y92964D01*
X107188Y89916D02*
X104140Y89916D01*
X104140Y92964D01*
X107188Y92964D01*
X107188Y38100D02*
X107188Y35052D01*
X104140Y35052D01*
X104140Y38100D01*
X107188Y38100D01*
X79756Y62484D02*
X79756Y65532D01*
X79756Y62484D02*
X76708Y62484D01*
X76708Y65532D01*
X79756Y65532D01*
X80264Y117348D02*
X80264Y120396D01*
X80264Y117348D02*
X77216Y117348D01*
X77216Y120396D01*
X80264Y120396D01*
X80264Y10668D02*
X80264Y7620D01*
X77216Y7620D01*
X77216Y10668D01*
X80264Y10668D01*
X80264Y89916D02*
X80264Y92964D01*
X80264Y89916D02*
X77216Y89916D01*
X77216Y92964D01*
X80264Y92964D01*
X80264Y38100D02*
X80264Y35052D01*
X77216Y35052D01*
X77216Y38100D01*
X80264Y38100D01*
D13*
X193548Y37070D02*
X205232Y37070D01*
X193548Y37070D02*
X193548Y40316D01*
X193550Y40429D01*
X193556Y40542D01*
X193566Y40655D01*
X193580Y40768D01*
X193597Y40880D01*
X193619Y40991D01*
X193644Y41101D01*
X193674Y41211D01*
X193707Y41319D01*
X193744Y41426D01*
X193784Y41532D01*
X193829Y41636D01*
X193877Y41739D01*
X193928Y41840D01*
X193983Y41939D01*
X194041Y42036D01*
X194103Y42131D01*
X194168Y42224D01*
X194236Y42314D01*
X194307Y42402D01*
X194382Y42488D01*
X194459Y42571D01*
X194539Y42651D01*
X194622Y42728D01*
X194708Y42803D01*
X194796Y42874D01*
X194886Y42942D01*
X194979Y43007D01*
X195074Y43069D01*
X195171Y43127D01*
X195270Y43182D01*
X195371Y43233D01*
X195474Y43281D01*
X195578Y43326D01*
X195684Y43366D01*
X195791Y43403D01*
X195899Y43436D01*
X196009Y43466D01*
X196119Y43491D01*
X196230Y43513D01*
X196342Y43530D01*
X196455Y43544D01*
X196568Y43554D01*
X196681Y43560D01*
X196794Y43562D01*
X196794Y43561D02*
X201986Y43561D01*
X201986Y43562D02*
X202099Y43560D01*
X202212Y43554D01*
X202325Y43544D01*
X202438Y43530D01*
X202550Y43513D01*
X202661Y43491D01*
X202771Y43466D01*
X202881Y43436D01*
X202989Y43403D01*
X203096Y43366D01*
X203202Y43326D01*
X203306Y43281D01*
X203409Y43233D01*
X203510Y43182D01*
X203609Y43127D01*
X203706Y43069D01*
X203801Y43007D01*
X203894Y42942D01*
X203984Y42874D01*
X204072Y42803D01*
X204158Y42728D01*
X204241Y42651D01*
X204321Y42571D01*
X204398Y42488D01*
X204473Y42402D01*
X204544Y42314D01*
X204612Y42224D01*
X204677Y42131D01*
X204739Y42036D01*
X204797Y41939D01*
X204852Y41840D01*
X204903Y41739D01*
X204951Y41636D01*
X204996Y41532D01*
X205036Y41426D01*
X205073Y41319D01*
X205106Y41211D01*
X205136Y41101D01*
X205161Y40991D01*
X205183Y40880D01*
X205200Y40768D01*
X205214Y40655D01*
X205224Y40542D01*
X205230Y40429D01*
X205232Y40316D01*
X205232Y37070D01*
X205232Y49262D02*
X193548Y49262D01*
X198741Y49262D02*
X198741Y55753D01*
X193548Y55753D02*
X205232Y55753D01*
X205232Y63557D02*
X193548Y63557D01*
X193548Y66802D02*
X193548Y60311D01*
X196144Y70979D02*
X193548Y74224D01*
X205232Y74224D01*
X205232Y70979D02*
X205232Y77470D01*
X196144Y82409D02*
X193548Y85654D01*
X205232Y85654D01*
X205232Y82409D02*
X205232Y88900D01*
D11*
X110490Y317500D02*
X67310Y317500D01*
X67310Y342900D02*
X110490Y342900D01*
X64770Y340360D02*
X64770Y320040D01*
X113030Y320040D02*
X113030Y340360D01*
X67310Y317500D02*
X67210Y317502D01*
X67111Y317508D01*
X67011Y317518D01*
X66913Y317531D01*
X66814Y317549D01*
X66717Y317570D01*
X66621Y317595D01*
X66525Y317624D01*
X66431Y317657D01*
X66338Y317693D01*
X66247Y317733D01*
X66157Y317777D01*
X66069Y317824D01*
X65983Y317874D01*
X65899Y317928D01*
X65817Y317985D01*
X65738Y318045D01*
X65660Y318109D01*
X65586Y318175D01*
X65514Y318244D01*
X65445Y318316D01*
X65379Y318390D01*
X65315Y318468D01*
X65255Y318547D01*
X65198Y318629D01*
X65144Y318713D01*
X65094Y318799D01*
X65047Y318887D01*
X65003Y318977D01*
X64963Y319068D01*
X64927Y319161D01*
X64894Y319255D01*
X64865Y319351D01*
X64840Y319447D01*
X64819Y319544D01*
X64801Y319643D01*
X64788Y319741D01*
X64778Y319841D01*
X64772Y319940D01*
X64770Y320040D01*
X110490Y317500D02*
X110590Y317502D01*
X110689Y317508D01*
X110789Y317518D01*
X110887Y317531D01*
X110986Y317549D01*
X111083Y317570D01*
X111179Y317595D01*
X111275Y317624D01*
X111369Y317657D01*
X111462Y317693D01*
X111553Y317733D01*
X111643Y317777D01*
X111731Y317824D01*
X111817Y317874D01*
X111901Y317928D01*
X111983Y317985D01*
X112062Y318045D01*
X112140Y318109D01*
X112214Y318175D01*
X112286Y318244D01*
X112355Y318316D01*
X112421Y318390D01*
X112485Y318468D01*
X112545Y318547D01*
X112602Y318629D01*
X112656Y318713D01*
X112706Y318799D01*
X112753Y318887D01*
X112797Y318977D01*
X112837Y319068D01*
X112873Y319161D01*
X112906Y319255D01*
X112935Y319351D01*
X112960Y319447D01*
X112981Y319544D01*
X112999Y319643D01*
X113012Y319741D01*
X113022Y319841D01*
X113028Y319940D01*
X113030Y320040D01*
X67310Y342900D02*
X67210Y342898D01*
X67111Y342892D01*
X67011Y342882D01*
X66913Y342869D01*
X66814Y342851D01*
X66717Y342830D01*
X66621Y342805D01*
X66525Y342776D01*
X66431Y342743D01*
X66338Y342707D01*
X66247Y342667D01*
X66157Y342623D01*
X66069Y342576D01*
X65983Y342526D01*
X65899Y342472D01*
X65817Y342415D01*
X65738Y342355D01*
X65660Y342291D01*
X65586Y342225D01*
X65514Y342156D01*
X65445Y342084D01*
X65379Y342010D01*
X65315Y341932D01*
X65255Y341853D01*
X65198Y341771D01*
X65144Y341687D01*
X65094Y341601D01*
X65047Y341513D01*
X65003Y341423D01*
X64963Y341332D01*
X64927Y341239D01*
X64894Y341145D01*
X64865Y341049D01*
X64840Y340953D01*
X64819Y340856D01*
X64801Y340757D01*
X64788Y340659D01*
X64778Y340559D01*
X64772Y340460D01*
X64770Y340360D01*
X110490Y342900D02*
X110590Y342898D01*
X110689Y342892D01*
X110789Y342882D01*
X110887Y342869D01*
X110986Y342851D01*
X111083Y342830D01*
X111179Y342805D01*
X111275Y342776D01*
X111369Y342743D01*
X111462Y342707D01*
X111553Y342667D01*
X111643Y342623D01*
X111731Y342576D01*
X111817Y342526D01*
X111901Y342472D01*
X111983Y342415D01*
X112062Y342355D01*
X112140Y342291D01*
X112214Y342225D01*
X112286Y342156D01*
X112355Y342084D01*
X112421Y342010D01*
X112485Y341932D01*
X112545Y341853D01*
X112602Y341771D01*
X112656Y341687D01*
X112706Y341601D01*
X112753Y341513D01*
X112797Y341423D01*
X112837Y341332D01*
X112873Y341239D01*
X112906Y341145D01*
X112935Y341049D01*
X112960Y340953D01*
X112981Y340856D01*
X112999Y340757D01*
X113012Y340659D01*
X113022Y340559D01*
X113028Y340460D01*
X113030Y340360D01*
X86360Y330200D02*
X85090Y330200D01*
D15*
X86360Y330200D02*
X86360Y322580D01*
X86360Y330200D02*
X86360Y337820D01*
X91440Y330200D02*
X91440Y322580D01*
X91440Y330200D02*
X91440Y337820D01*
D11*
X91440Y330200D02*
X92710Y330200D01*
D14*
X102833Y302895D02*
X105373Y302895D01*
X102833Y302895D02*
X102733Y302897D01*
X102634Y302903D01*
X102534Y302913D01*
X102436Y302926D01*
X102337Y302944D01*
X102240Y302965D01*
X102144Y302990D01*
X102048Y303019D01*
X101954Y303052D01*
X101861Y303088D01*
X101770Y303128D01*
X101680Y303172D01*
X101592Y303219D01*
X101506Y303269D01*
X101422Y303323D01*
X101340Y303380D01*
X101261Y303440D01*
X101183Y303504D01*
X101109Y303570D01*
X101037Y303639D01*
X100968Y303711D01*
X100902Y303785D01*
X100838Y303863D01*
X100778Y303942D01*
X100721Y304024D01*
X100667Y304108D01*
X100617Y304194D01*
X100570Y304282D01*
X100526Y304372D01*
X100486Y304463D01*
X100450Y304556D01*
X100417Y304650D01*
X100388Y304746D01*
X100363Y304842D01*
X100342Y304939D01*
X100324Y305038D01*
X100311Y305136D01*
X100301Y305236D01*
X100295Y305335D01*
X100293Y305435D01*
X100293Y311785D01*
X100295Y311885D01*
X100301Y311984D01*
X100311Y312084D01*
X100324Y312182D01*
X100342Y312281D01*
X100363Y312378D01*
X100388Y312474D01*
X100417Y312570D01*
X100450Y312664D01*
X100486Y312757D01*
X100526Y312848D01*
X100570Y312938D01*
X100617Y313026D01*
X100667Y313112D01*
X100721Y313196D01*
X100778Y313278D01*
X100838Y313357D01*
X100902Y313435D01*
X100968Y313509D01*
X101037Y313581D01*
X101109Y313650D01*
X101183Y313716D01*
X101261Y313780D01*
X101340Y313840D01*
X101422Y313897D01*
X101506Y313951D01*
X101592Y314001D01*
X101680Y314048D01*
X101770Y314092D01*
X101861Y314132D01*
X101954Y314168D01*
X102048Y314201D01*
X102144Y314230D01*
X102240Y314255D01*
X102337Y314276D01*
X102436Y314294D01*
X102534Y314307D01*
X102634Y314317D01*
X102733Y314323D01*
X102833Y314325D01*
X105373Y314325D01*
X109855Y311785D02*
X113030Y314325D01*
X113030Y302895D01*
X109855Y302895D02*
X116205Y302895D01*
X49886Y314325D02*
X46711Y311785D01*
X49886Y314325D02*
X49886Y302895D01*
X46711Y302895D02*
X53061Y302895D01*
X58141Y308610D02*
X58144Y308835D01*
X58152Y309060D01*
X58165Y309284D01*
X58184Y309508D01*
X58208Y309732D01*
X58237Y309955D01*
X58272Y310177D01*
X58312Y310398D01*
X58358Y310618D01*
X58408Y310837D01*
X58464Y311055D01*
X58525Y311272D01*
X58591Y311487D01*
X58662Y311700D01*
X58739Y311911D01*
X58820Y312121D01*
X58906Y312329D01*
X58997Y312534D01*
X59093Y312737D01*
X59093Y312738D02*
X59125Y312826D01*
X59161Y312913D01*
X59200Y312999D01*
X59243Y313083D01*
X59289Y313165D01*
X59338Y313245D01*
X59390Y313323D01*
X59446Y313399D01*
X59504Y313473D01*
X59566Y313544D01*
X59630Y313613D01*
X59697Y313679D01*
X59766Y313742D01*
X59838Y313803D01*
X59912Y313861D01*
X59989Y313915D01*
X60067Y313967D01*
X60148Y314015D01*
X60230Y314060D01*
X60315Y314102D01*
X60401Y314140D01*
X60488Y314175D01*
X60576Y314207D01*
X60666Y314234D01*
X60757Y314259D01*
X60849Y314279D01*
X60941Y314296D01*
X61035Y314309D01*
X61128Y314318D01*
X61222Y314324D01*
X61316Y314326D01*
X61410Y314324D01*
X61504Y314318D01*
X61597Y314309D01*
X61691Y314296D01*
X61783Y314279D01*
X61875Y314259D01*
X61966Y314234D01*
X62056Y314207D01*
X62144Y314175D01*
X62231Y314140D01*
X62317Y314102D01*
X62402Y314060D01*
X62484Y314015D01*
X62565Y313967D01*
X62643Y313915D01*
X62720Y313861D01*
X62794Y313803D01*
X62866Y313742D01*
X62935Y313679D01*
X63002Y313613D01*
X63066Y313544D01*
X63128Y313473D01*
X63186Y313399D01*
X63242Y313323D01*
X63294Y313245D01*
X63343Y313165D01*
X63389Y313083D01*
X63432Y312999D01*
X63471Y312913D01*
X63507Y312826D01*
X63539Y312738D01*
X63538Y312737D02*
X63634Y312534D01*
X63725Y312329D01*
X63811Y312121D01*
X63892Y311911D01*
X63969Y311700D01*
X64040Y311487D01*
X64106Y311272D01*
X64167Y311055D01*
X64223Y310837D01*
X64273Y310618D01*
X64319Y310398D01*
X64359Y310177D01*
X64394Y309955D01*
X64423Y309732D01*
X64447Y309508D01*
X64466Y309284D01*
X64479Y309060D01*
X64487Y308835D01*
X64490Y308610D01*
X58141Y308610D02*
X58144Y308385D01*
X58152Y308160D01*
X58165Y307936D01*
X58184Y307712D01*
X58208Y307488D01*
X58237Y307265D01*
X58272Y307043D01*
X58312Y306822D01*
X58358Y306602D01*
X58408Y306383D01*
X58464Y306165D01*
X58525Y305948D01*
X58591Y305733D01*
X58662Y305520D01*
X58739Y305309D01*
X58820Y305099D01*
X58906Y304891D01*
X58997Y304686D01*
X59093Y304483D01*
X59125Y304395D01*
X59161Y304308D01*
X59200Y304222D01*
X59243Y304138D01*
X59289Y304056D01*
X59338Y303976D01*
X59390Y303898D01*
X59446Y303822D01*
X59504Y303748D01*
X59566Y303677D01*
X59630Y303608D01*
X59697Y303542D01*
X59766Y303479D01*
X59838Y303418D01*
X59912Y303360D01*
X59989Y303306D01*
X60067Y303254D01*
X60148Y303206D01*
X60230Y303161D01*
X60315Y303119D01*
X60401Y303081D01*
X60488Y303046D01*
X60576Y303014D01*
X60666Y302987D01*
X60757Y302962D01*
X60849Y302942D01*
X60941Y302925D01*
X61035Y302912D01*
X61128Y302903D01*
X61222Y302897D01*
X61316Y302895D01*
X63538Y304483D02*
X63634Y304686D01*
X63725Y304891D01*
X63811Y305099D01*
X63892Y305309D01*
X63969Y305520D01*
X64040Y305733D01*
X64106Y305948D01*
X64167Y306165D01*
X64223Y306383D01*
X64273Y306602D01*
X64319Y306822D01*
X64359Y307043D01*
X64394Y307265D01*
X64423Y307488D01*
X64447Y307712D01*
X64466Y307936D01*
X64479Y308160D01*
X64487Y308385D01*
X64490Y308610D01*
X63539Y304483D02*
X63507Y304395D01*
X63471Y304308D01*
X63432Y304222D01*
X63389Y304138D01*
X63343Y304056D01*
X63294Y303976D01*
X63242Y303898D01*
X63186Y303822D01*
X63128Y303748D01*
X63066Y303677D01*
X63002Y303608D01*
X62935Y303542D01*
X62866Y303479D01*
X62794Y303418D01*
X62720Y303360D01*
X62643Y303306D01*
X62565Y303254D01*
X62484Y303206D01*
X62402Y303161D01*
X62317Y303119D01*
X62231Y303081D01*
X62144Y303046D01*
X62056Y303014D01*
X61966Y302987D01*
X61875Y302962D01*
X61783Y302942D01*
X61691Y302925D01*
X61597Y302912D01*
X61504Y302903D01*
X61410Y302897D01*
X61316Y302895D01*
X58776Y305435D02*
X63856Y311785D01*
X69825Y310515D02*
X69825Y304800D01*
X69827Y304715D01*
X69833Y304629D01*
X69842Y304544D01*
X69856Y304460D01*
X69873Y304376D01*
X69894Y304293D01*
X69918Y304211D01*
X69946Y304131D01*
X69978Y304051D01*
X70014Y303973D01*
X70052Y303897D01*
X70095Y303823D01*
X70140Y303751D01*
X70189Y303680D01*
X70241Y303612D01*
X70295Y303547D01*
X70353Y303484D01*
X70414Y303423D01*
X70477Y303365D01*
X70542Y303311D01*
X70610Y303259D01*
X70681Y303210D01*
X70753Y303165D01*
X70827Y303122D01*
X70903Y303084D01*
X70981Y303048D01*
X71061Y303016D01*
X71141Y302988D01*
X71223Y302964D01*
X71306Y302943D01*
X71390Y302926D01*
X71474Y302912D01*
X71559Y302903D01*
X71645Y302897D01*
X71730Y302895D01*
X74905Y302895D01*
X74905Y310515D01*
X80645Y314325D02*
X80645Y302895D01*
X80645Y314325D02*
X85725Y314325D01*
X85725Y309245D02*
X80645Y309245D01*
D15*
X51900Y43895D02*
X51900Y-13605D01*
X125900Y-13605D01*
X125900Y43895D01*
X51900Y43895D01*
D16*
X101900Y43320D02*
X101900Y38320D01*
X75900Y38320D02*
X75900Y43320D01*
X75900Y38320D02*
X101900Y38320D01*
M02*
